<?xml version="1.0" standalone="no"?>
<!DOCTYPE svg PUBLIC "-//W3C//DTD SVG 20010904//EN"
 "http://www.w3.org/TR/2001/REC-SVG-20010904/DTD/svg10.dtd">
<svg version="1.0" xmlns="http://www.w3.org/2000/svg"
 width="1080.000000pt" height="1080.000000pt" viewBox="0 0 1080.000000 1080.000000"
 preserveAspectRatio="xMidYMid meet">
<metadata>
Created by potrace 1.14, written by Peter Selinger 2001-2017
</metadata>
<g transform="translate(0.000000,1080.000000) scale(0.100000,-0.100000)"
fill="#000000" stroke="none">
<path d="M4746 10583 c-5 -13 -9 -14 -15 -5 -8 13 -69 11 -103 -3 -17 -7 -17
-8 0 -24 10 -9 12 -12 5 -7 -16 10 -17 -5 -3 -22 6 -6 7 -10 4 -7 -4 3 -14 -1
-22 -8 -10 -8 -13 -8 -9 -1 4 7 0 15 -9 18 -8 3 -13 2 -10 -3 3 -5 -12 -11
-34 -13 -22 -2 -40 0 -40 5 0 4 -5 5 -12 1 -6 -4 -30 -7 -52 -7 -23 0 -44 -5
-48 -11 -5 -7 -8 -6 -9 4 0 8 -5 4 -9 -10 -8 -24 -8 -24 -9 -2 -1 26 -4 27
-37 5 -17 -11 -21 -18 -13 -23 17 -11 2 -29 -20 -23 -10 3 -22 0 -26 -7 -5 -8
-11 -7 -23 2 -12 10 -14 10 -8 1 4 -7 2 -13 -3 -13 -6 0 -11 6 -11 13 0 7 -3
8 -8 2 -4 -6 -20 -12 -37 -13 -16 -2 -34 -8 -40 -13 -7 -7 -4 -8 8 -4 10 4 17
2 17 -5 0 -7 -13 -10 -32 -8 -22 2 -32 -1 -30 -9 1 -7 -2 -13 -8 -13 -5 0 -10
-5 -10 -11 0 -8 4 -8 15 1 8 6 20 8 26 4 8 -4 9 -3 5 4 -4 7 -1 12 8 12 14 0
14 -3 4 -20 -7 -11 -15 -15 -16 -10 -3 7 -14 5 -29 -6 -14 -9 -23 -12 -19 -6
3 5 -1 13 -10 16 -8 3 -12 2 -9 -4 3 -6 2 -10 -4 -10 -5 0 -13 5 -17 11 -9 16
-27 -17 -19 -34 4 -6 -1 -3 -9 7 -9 11 -16 18 -17 15 -11 -65 -16 -72 -39 -59
-16 9 -20 8 -21 -7 0 -11 -3 -13 -6 -5 -2 6 -9 12 -14 12 -6 0 -8 -4 -5 -8 2
-4 0 -14 -5 -22 -8 -12 -9 -11 -7 4 2 12 -4 20 -15 22 -15 2 -16 0 -6 -12 14
-17 -2 -19 -20 -1 -10 10 -11 8 -5 -7 6 -15 4 -17 -6 -11 -9 6 -11 4 -6 -4 5
-7 0 -18 -10 -27 -17 -12 -17 -13 -1 -8 10 4 17 1 17 -6 0 -7 -8 -10 -19 -7
-20 5 -53 -23 -64 -55 -7 -19 -27 -25 -27 -7 0 5 6 7 13 3 6 -4 9 -3 4 1 -4 5
3 20 15 34 15 16 9 13 -17 -9 -50 -41 -71 -70 -54 -70 7 0 10 -3 6 -6 -3 -3
-11 -3 -17 1 -8 5 -7 11 2 23 12 15 11 16 -4 3 -14 -11 -18 -11 -18 -1 0 8 -3
10 -6 7 -4 -4 1 -17 9 -31 16 -24 16 -25 -3 -21 -11 2 -20 0 -20 -6 0 -5 -5
-9 -12 -9 -6 0 -4 7 5 18 16 18 14 32 -6 32 -5 0 -7 -6 -4 -14 3 -8 0 -20 -8
-26 -7 -6 -11 -20 -8 -30 6 -24 0 -25 -21 -4 -9 8 -16 11 -16 5 0 -6 -8 -8
-17 -5 -13 4 -14 3 -5 -3 7 -6 10 -18 6 -29 -5 -16 -4 -16 5 -4 9 13 11 13 11
-2 0 -10 -5 -18 -12 -18 -6 0 -8 -3 -5 -6 3 -4 2 -15 -4 -26 -8 -15 -13 -17
-25 -7 -8 6 -14 8 -14 3 0 -5 -8 0 -16 11 -10 11 -14 14 -12 5 3 -8 -4 -22
-15 -31 -17 -13 -17 -16 -4 -16 9 0 14 4 11 9 -3 4 0 8 5 8 6 0 11 -6 11 -12
0 -9 3 -8 10 2 5 8 12 11 16 7 10 -10 1 -17 -27 -22 -13 -3 -25 -9 -27 -15 -2
-6 -8 -8 -13 -4 -5 3 -8 0 -7 -7 2 -7 -6 -13 -16 -14 -14 0 -20 -8 -21 -27 -1
-15 -7 -34 -14 -42 -9 -11 -9 -15 1 -19 10 -4 10 -6 -1 -6 -10 -1 -11 -4 -2
-15 9 -10 7 -17 -6 -27 -16 -13 -17 -12 -5 3 12 15 10 16 -18 14 -16 -1 -30
-5 -30 -9 0 -4 0 -10 0 -13 0 -4 7 -1 15 6 10 9 15 9 15 1 0 -6 -5 -11 -11
-11 -5 0 -7 -5 -3 -11 5 -8 1 -8 -14 0 -16 8 -23 7 -33 -7 -13 -16 -13 -16 5
-2 18 14 19 13 13 -2 -3 -10 -2 -20 4 -24 6 -4 6 -11 -2 -20 -6 -7 -15 -11
-20 -8 -5 3 -9 -2 -9 -10 0 -10 6 -13 18 -10 10 4 13 3 6 -3 -6 -4 -14 -16
-17 -27 -6 -15 -10 -16 -22 -6 -15 12 -20 4 -16 -23 1 -4 -6 -10 -14 -13 -13
-5 -13 -9 -3 -22 11 -13 11 -14 -1 -7 -11 6 -13 4 -7 -10 4 -11 2 -22 -6 -27
-11 -6 -10 -10 0 -17 8 -4 14 -10 15 -12 2 -7 -37 -48 -41 -44 -3 3 1 11 7 19
9 11 9 16 0 22 -8 5 -9 3 -4 -6 6 -10 3 -12 -13 -8 -13 4 -20 1 -19 -5 1 -6
-3 -11 -10 -12 -6 0 -14 -3 -18 -7 -9 -9 17 -5 33 6 11 7 11 4 1 -12 -7 -12
-15 -20 -18 -19 -4 1 -6 -2 -6 -8 0 -5 3 -9 8 -7 13 4 7 -11 -10 -23 -15 -11
-15 -15 -4 -29 11 -13 11 -16 0 -16 -10 0 -11 -2 -2 -8 13 -8 12 -29 -1 -51
-5 -8 -4 -16 4 -21 8 -5 7 -9 -5 -14 -9 -3 -13 -11 -9 -17 4 -8 3 -9 -5 -5 -9
6 -9 11 1 24 11 14 10 15 -7 8 -11 -5 -29 -8 -40 -8 -16 1 -17 -1 -5 -8 8 -5
11 -10 6 -10 -5 0 -2 -8 5 -17 8 -9 9 -14 3 -10 -15 9 -24 -69 -10 -83 7 -7 5
-10 -3 -10 -10 0 -11 -3 -2 -14 8 -10 9 -16 1 -21 -5 -3 -10 -11 -10 -16 0 -6
5 -7 10 -4 6 3 10 1 10 -4 0 -6 -4 -11 -8 -11 -4 0 -8 -12 -8 -27 1 -15 -5
-28 -14 -30 -12 -4 -12 -3 -2 5 11 7 11 10 -2 15 -9 4 -15 1 -13 -6 1 -7 -4
-11 -12 -9 -9 2 -12 -4 -8 -18 3 -11 1 -18 -4 -14 -5 3 -9 -2 -9 -11 0 -9 4
-13 10 -10 7 4 7 -3 0 -19 -5 -14 -7 -26 -4 -26 4 0 1 -7 -6 -15 -7 -8 -17
-12 -22 -9 -6 4 -4 -4 3 -17 15 -28 15 -29 -3 -41 -10 -7 -9 -8 5 -4 9 3 17 0
17 -6 0 -6 -8 -17 -17 -25 -17 -14 -17 -14 -1 -9 10 3 20 0 24 -6 4 -7 3 -8
-4 -4 -7 4 -12 2 -12 -4 0 -6 -5 -8 -12 -4 -10 6 -10 5 -1 -8 7 -8 9 -19 5
-23 -4 -5 0 -5 8 0 8 5 12 5 8 0 -4 -4 -3 -17 3 -28 8 -14 8 -18 0 -13 -13 8
-10 -21 3 -43 7 -10 5 -12 -3 -6 -9 5 -11 -1 -8 -23 3 -17 8 -37 12 -44 6 -10
5 -11 -6 0 -7 6 -18 12 -23 12 -6 0 -5 -4 2 -9 7 -4 14 -14 15 -22 2 -8 7 -20
11 -28 6 -10 5 -12 -2 -7 -14 9 -16 -13 -2 -34 5 -9 5 -19 -1 -27 -7 -8 -7
-18 0 -31 7 -14 7 -19 -4 -19 -7 0 -11 6 -8 13 2 6 1 14 -4 17 -4 3 -9 -5 -9
-18 -1 -14 6 -27 20 -34 21 -11 21 -11 -2 -5 -12 3 -22 2 -21 -3 4 -22 -2 -34
-13 -27 -9 6 -9 3 0 -9 14 -16 9 -37 -8 -37 -5 0 -7 8 -4 18 5 14 4 15 -5 2
-9 -12 -11 -13 -11 -1 0 8 -3 12 -6 9 -6 -7 23 -68 32 -68 4 0 4 6 1 13 -7 18
29 41 39 25 4 -7 3 -8 -5 -4 -12 8 -32 -32 -23 -49 3 -5 -1 -4 -9 3 -22 20
-36 14 -34 -16 2 -36 13 -54 27 -46 7 4 8 2 4 -5 -6 -9 -11 -9 -21 -1 -9 8
-15 8 -20 0 -3 -5 -1 -10 5 -10 7 0 9 -8 5 -21 -5 -15 -4 -19 4 -15 8 5 8 0 0
-18 -10 -20 -9 -29 2 -43 8 -9 9 -14 3 -10 -11 6 -11 -84 0 -151 4 -24 2 -31
-7 -26 -7 4 -8 3 -4 -2 5 -5 12 -9 15 -9 4 0 13 -4 21 -9 10 -7 12 -6 6 4 -5
8 -4 11 1 7 6 -3 10 5 10 18 0 13 -4 21 -10 18 -5 -4 -6 -1 -1 7 6 9 4 11 -5
5 -9 -6 -11 -4 -5 5 6 9 4 11 -6 5 -12 -7 -12 -6 -1 6 11 12 15 11 23 -4 6 -9
15 -14 21 -11 7 5 8 2 2 -7 -5 -8 -9 -22 -9 -32 0 -10 -11 -27 -25 -38 -14
-12 -19 -18 -13 -14 7 3 25 -1 40 -10 16 -9 19 -13 8 -10 -11 3 -16 3 -12 -1
4 -4 2 -13 -4 -21 -6 -7 -8 -13 -4 -13 4 0 1 -8 -6 -17 -11 -15 -11 -16 1 -6
18 16 44 -15 28 -34 -6 -7 -8 -26 -6 -43 3 -22 1 -30 -11 -31 -11 0 -12 -2 -3
-6 7 -2 17 -14 23 -26 9 -18 9 -20 -2 -9 -7 6 -18 12 -23 12 -6 0 -4 -5 4 -10
12 -8 13 -12 2 -19 -11 -7 -10 -9 3 -14 10 -5 14 -3 9 5 -4 7 -3 8 5 4 6 -4 9
-12 5 -17 -3 -5 -7 -21 -10 -35 -3 -19 -1 -24 8 -18 10 6 11 5 1 -8 -7 -8 -9
-19 -5 -23 4 -5 0 -6 -9 -3 -9 4 -16 1 -16 -7 0 -7 8 -10 17 -8 10 3 16 -2 16
-16 0 -15 -3 -17 -13 -9 -10 8 -12 7 -7 -6 3 -9 10 -16 16 -16 5 0 6 -5 3 -10
-4 -6 -11 -8 -16 -5 -5 4 -9 1 -9 -5 0 -7 7 -10 15 -6 12 4 15 -3 15 -29 0
-35 3 -37 47 -38 12 0 20 -4 17 -9 -3 -4 -9 -6 -14 -3 -5 3 -12 0 -16 -6 -4
-8 -3 -9 4 -5 7 4 12 2 12 -4 0 -6 5 -8 12 -4 7 4 8 3 4 -5 -4 -6 -11 -9 -16
-6 -5 3 -12 0 -16 -7 -4 -7 -4 -10 1 -6 16 15 34 -12 25 -37 -6 -16 -5 -25 3
-29 9 -3 8 -5 -1 -5 -7 -1 -10 -6 -6 -12 3 -6 6 -31 6 -55 -1 -33 2 -44 14
-44 9 0 12 5 8 12 -4 7 -3 8 4 4 6 -4 8 -14 5 -24 -5 -14 -4 -15 8 -6 11 9 18
8 31 -5 16 -16 16 -17 -3 -18 -12 -1 -17 3 -13 9 4 6 3 8 -3 5 -17 -10 -8 -52
10 -49 12 2 15 -2 10 -15 -4 -10 -11 -21 -17 -25 -6 -4 0 -8 13 -8 24 0 24 0
5 -16 -10 -8 -14 -13 -7 -10 7 4 11 -1 10 -14 -1 -11 -6 -20 -11 -20 -5 0 -1
-7 10 -15 14 -11 15 -14 4 -15 -13 0 -13 -2 0 -9 8 -6 18 -7 22 -5 13 8 9 -10
-4 -26 -7 -8 -3 -6 9 4 13 10 20 23 17 27 -10 16 1 9 19 -12 16 -18 16 -20 1
-17 -9 2 -19 -4 -21 -12 -3 -11 -2 -11 4 -3 6 8 14 9 23 3 13 -9 13 -10 0 -10
-10 0 -11 -3 -3 -8 6 -4 10 -24 9 -44 -3 -40 -1 -45 28 -68 18 -14 19 -13 13
2 -4 11 -2 15 6 12 7 -2 12 -24 12 -52 0 -33 5 -51 17 -60 14 -10 16 -18 8
-32 -8 -16 -6 -18 15 -15 14 1 28 -1 31 -6 2 -4 12 -6 22 -3 13 5 14 4 3 -4
-9 -7 -10 -11 -2 -17 9 -5 9 -10 0 -21 -9 -11 -8 -14 2 -14 11 0 11 -2 -1 -10
-12 -8 -12 -10 -1 -10 9 0 12 -8 8 -25 -2 -14 -2 -23 1 -20 3 3 19 -7 35 -22
17 -16 27 -22 23 -16 -5 9 -2 11 9 7 9 -4 13 -9 11 -12 -3 -3 0 -12 7 -20 8
-10 8 -13 1 -9 -7 4 -15 0 -18 -8 -8 -21 -7 -25 1 -22 5 1 7 6 5 10 -1 5 2 6
8 2 6 -4 8 -16 5 -28 -4 -16 -4 -18 3 -9 8 11 14 9 32 -10 21 -22 22 -22 11
-1 -6 12 -16 23 -23 25 -7 3 -4 7 7 12 11 4 16 4 13 0 -4 -3 0 -13 8 -21 8 -9
12 -23 9 -34 -4 -11 -2 -19 5 -19 7 0 10 -12 8 -30 -1 -16 0 -28 3 -27 3 1 14
-5 25 -13 17 -14 18 -14 6 2 -9 11 -10 18 -2 23 5 3 10 11 10 17 0 7 -6 6 -15
-2 -9 -7 -15 -8 -15 -2 0 20 30 21 40 1 6 -11 7 -18 1 -17 -11 4 -13 -6 -5
-27 3 -8 11 -12 18 -8 6 4 5 -1 -3 -10 -7 -9 -10 -17 -5 -17 5 0 3 -4 -5 -9
-11 -7 -9 -10 9 -16 15 -5 25 -2 31 6 6 9 8 4 6 -15 -1 -21 3 -30 16 -32 9 -1
15 2 11 7 -3 5 -10 6 -16 3 -7 -5 -8 -2 -3 6 6 10 12 8 25 -8 10 -12 21 -18
25 -14 4 4 3 -3 -4 -15 -17 -33 -14 -48 6 -32 14 12 16 12 8 0 -6 -11 -2 -13
19 -9 14 3 29 1 33 -5 3 -6 1 -7 -5 -3 -7 4 -12 2 -12 -3 0 -6 6 -11 13 -11 8
0 7 -4 -3 -10 -12 -7 -12 -10 -1 -10 7 0 11 -6 8 -14 -7 -18 12 -36 31 -29 11
5 13 2 7 -6 -6 -10 -3 -11 13 -2 15 8 23 8 28 -1 4 -6 3 -9 -2 -6 -5 3 -15 -1
-23 -9 -12 -13 -11 -14 10 -8 21 7 22 6 10 -9 -11 -13 -11 -16 0 -17 8 -1 17
-1 22 0 4 0 7 -6 7 -15 0 -8 -4 -13 -8 -10 -5 3 -9 -1 -9 -9 0 -12 3 -12 16
-2 12 10 14 9 8 -6 -4 -11 -3 -16 4 -12 5 4 7 15 4 26 -5 14 -3 17 9 13 9 -3
13 -10 10 -15 -3 -5 3 -9 13 -10 10 0 13 -3 6 -6 -14 -5 -18 -54 -5 -52 21 4
32 -2 26 -13 -6 -10 -4 -10 7 -2 20 16 48 14 42 -4 -5 -11 -7 -11 -14 0 -5 7
-9 8 -9 3 0 -6 6 -17 13 -24 10 -12 8 -13 -8 -7 -19 6 -19 5 -2 -8 11 -8 27
-13 38 -11 10 2 19 -1 19 -7 0 -6 9 -8 20 -5 11 3 20 1 20 -4 0 -5 -6 -9 -14
-9 -8 0 -17 -4 -20 -9 -4 -5 3 -7 14 -4 16 4 19 1 17 -23 -1 -20 2 -28 12 -26
8 2 11 -3 8 -12 -6 -15 17 -16 30 -1 4 4 2 5 -4 1 -7 -4 -13 -3 -13 2 0 6 7
13 16 16 8 3 13 2 10 -3 -3 -4 1 -17 9 -27 8 -10 14 -23 15 -29 0 -5 -5 -3
-10 5 -7 12 -9 10 -8 -7 2 -14 7 -19 17 -15 10 4 12 1 6 -9 -8 -12 -6 -12 9 0
15 13 19 13 26 1 5 -8 7 -17 4 -21 -2 -4 3 -10 11 -13 13 -5 14 -2 4 15 -6 11
-8 23 -5 27 3 3 6 0 6 -6 0 -6 6 -10 13 -8 6 1 9 1 5 -1 -5 -3 -8 -9 -8 -14 0
-6 5 -7 11 -4 6 4 5 -2 -2 -13 -7 -11 -19 -18 -28 -15 -14 4 -14 3 -1 -5 10
-8 19 -7 28 1 11 9 18 7 32 -11 23 -28 29 -28 24 1 -2 12 -1 15 2 7 4 -8 12
-21 18 -29 8 -11 8 -13 -1 -7 -7 4 -13 2 -13 -3 0 -6 6 -11 13 -11 8 0 7 -4
-3 -10 -12 -8 -12 -10 -1 -10 11 0 11 -3 0 -17 -13 -17 -12 -17 5 -3 21 16 49
23 40 9 -3 -5 -10 -6 -16 -3 -7 4 -8 2 -4 -5 4 -6 12 -9 17 -6 5 4 9 0 10 -7
0 -7 4 -4 9 7 7 17 9 17 9 3 1 -10 6 -17 13 -15 7 1 13 -4 14 -10 1 -7 3 -16
4 -20 1 -5 1 -17 0 -28 -2 -18 0 -17 18 5 18 22 21 23 27 8 4 -10 12 -15 18
-11 6 3 7 1 3 -6 -8 -12 36 -61 55 -61 5 0 9 -7 9 -15 0 -8 5 -15 11 -15 5 0
7 6 3 13 -6 9 -4 9 7 1 8 -6 22 -10 31 -9 10 2 20 -1 24 -6 5 -9 1 -10 -48
-13 -15 -1 -29 -5 -32 -9 -4 -4 -3 -5 1 -2 3 3 17 -2 29 -10 13 -8 30 -12 38
-9 11 4 16 0 16 -10 0 -12 10 -16 38 -17 20 -1 30 -3 20 -6 -9 -2 -19 -12 -23
-21 -5 -14 -4 -15 6 -5 20 20 31 15 19 -7 -6 -11 -7 -20 -3 -19 20 3 34 -2 28
-11 -3 -5 -1 -10 4 -10 6 0 11 5 11 10 0 6 5 10 11 10 5 0 7 -4 4 -10 -9 -14
8 -12 24 3 11 9 13 9 7 0 -4 -7 -2 -13 4 -13 8 0 8 -6 0 -20 -8 -14 -8 -20 0
-20 6 0 9 -3 7 -7 -3 -5 9 -9 26 -10 30 -2 50 -20 41 -35 -3 -4 0 -8 5 -8 6 0
11 -5 11 -11 0 -5 -4 -7 -10 -4 -19 12 -10 -12 12 -31 20 -16 21 -17 9 -1 -12
15 -12 20 -1 30 8 8 11 8 7 1 -9 -16 19 -39 28 -24 8 12 25 4 25 -13 0 -7 -4
-6 -11 3 -9 12 -10 11 -4 -5 3 -11 7 -24 8 -30 5 -26 22 -33 40 -17 15 14 18
14 15 2 -2 -10 5 -15 20 -14 26 1 27 -4 7 -26 -13 -14 -12 -16 6 -17 10 -1 17
2 14 8 -4 5 -1 9 4 9 15 0 14 -6 -4 -34 -13 -19 -13 -23 -1 -23 8 0 12 6 8 15
-3 10 -1 13 6 9 6 -4 12 1 14 10 3 15 5 14 10 -5 3 -12 2 -20 -3 -16 -5 3 -9
0 -9 -6 0 -7 8 -9 21 -5 12 4 19 3 16 -2 -3 -5 8 -18 24 -28 16 -11 29 -26 29
-33 0 -19 31 -27 41 -11 5 8 9 10 10 4 0 -5 2 -18 4 -28 2 -9 -1 -15 -6 -11
-5 3 -6 10 -3 16 4 7 2 8 -4 4 -6 -4 -8 -14 -5 -23 5 -12 3 -14 -8 -8 -12 8
-12 6 0 -8 15 -18 26 -23 16 -7 -3 6 3 10 14 10 11 0 23 -4 26 -10 3 -5 0 -8
-7 -7 -7 2 -10 2 -5 0 4 -3 4 -9 1 -15 -4 -6 2 -6 14 1 29 15 37 14 21 -5 -10
-13 -10 -17 2 -25 12 -7 12 -9 0 -9 -8 0 -11 -3 -8 -6 4 -4 13 -1 21 5 12 10
16 8 21 -8 6 -19 17 -26 38 -22 11 2 4 -32 -8 -41 -6 -5 -5 -8 4 -8 11 0 11
-3 0 -18 -13 -16 -13 -16 7 0 17 15 23 15 44 5 14 -7 29 -14 33 -14 5 -1 12
-5 15 -9 4 -4 1 -4 -7 1 -10 6 -11 2 -6 -16 7 -21 6 -22 -9 -10 -10 9 -16 10
-16 2 0 -10 13 -15 33 -12 4 0 7 -4 7 -9 0 -6 9 -10 20 -10 11 0 20 -4 20 -8
0 -5 11 -14 25 -20 16 -8 28 -23 31 -42 4 -16 11 -30 16 -30 5 0 7 -4 4 -8 -7
-12 12 -38 21 -29 4 5 1 12 -7 17 -8 6 -10 10 -4 10 6 0 17 -7 24 -15 8 -10 9
-15 2 -15 -6 0 -10 -6 -8 -13 1 -6 1 -9 -1 -4 -3 4 -9 7 -15 7 -7 0 -6 -5 1
-14 12 -14 39 -14 64 0 6 4 9 4 5 -1 -4 -4 -3 -14 3 -22 8 -8 8 -13 1 -13 -6
0 -13 6 -15 13 -4 9 -6 9 -6 0 -1 -6 3 -14 9 -18 5 -3 7 -12 3 -20 -3 -11 -1
-13 10 -10 8 4 22 -1 31 -10 12 -12 16 -13 16 -3 0 10 3 9 10 -2 12 -19 13
-33 1 -26 -14 9 0 -37 16 -53 12 -11 11 -17 -3 -38 -11 -18 -12 -23 -3 -17 8
5 22 7 33 5 11 -1 16 2 11 8 -3 6 -10 9 -14 7 -10 -6 -7 31 3 41 4 5 6 1 4 -7
-2 -10 4 -14 17 -13 11 1 14 0 8 -3 -7 -3 -13 -10 -13 -15 0 -6 4 -8 8 -5 5 3
9 -1 9 -9 0 -8 -4 -12 -9 -9 -4 3 -8 0 -8 -5 0 -15 27 -14 33 2 2 6 3 -2 2
-19 -1 -17 -5 -36 -9 -42 -4 -7 -3 -12 2 -12 11 0 24 -37 23 -65 l-1 -20 9 20
c5 11 7 23 4 28 -2 4 1 7 6 7 6 0 11 -5 11 -11 0 -6 7 -9 15 -5 8 3 15 1 15
-4 0 -6 -5 -10 -11 -10 -6 0 -7 -5 -2 -12 13 -21 14 -50 2 -42 -8 4 -8 1 -1
-13 6 -11 7 -25 2 -34 -6 -11 -5 -16 5 -16 8 0 11 5 8 11 -3 6 2 3 13 -6 15
-14 16 -20 5 -30 -10 -11 -11 -10 -8 2 2 8 2 12 0 7 -3 -4 -10 -4 -16 0 -7 3
-4 -3 6 -14 9 -11 14 -23 10 -28 -5 -4 -2 -5 5 -1 6 4 12 2 12 -3 0 -6 5 -11
11 -11 8 0 8 5 -1 15 -7 8 -8 15 -3 15 5 0 17 -14 26 -30 15 -25 16 -30 3 -30
-8 0 -17 -4 -20 -9 -3 -5 1 -8 9 -7 7 0 14 -3 15 -9 1 -5 5 -14 9 -20 10 -13
-13 -57 -25 -47 -4 4 -2 -1 5 -11 14 -18 26 -24 16 -7 -3 6 -2 10 4 10 5 0 8
-12 6 -27 -2 -16 -4 -28 -5 -28 -1 0 -3 -11 -5 -25 -2 -14 -1 -19 1 -12 3 6
13 12 21 12 12 0 13 -3 4 -14 -10 -12 -8 -17 11 -26 22 -11 22 -10 4 5 -19 15
-19 15 5 13 22 -2 26 -7 25 -38 0 -19 -5 -38 -11 -42 -7 -5 -6 -8 1 -8 6 0 11
-18 12 -41 1 -30 -1 -38 -11 -33 -9 6 -9 4 1 -8 7 -9 10 -29 7 -46 -3 -17 -1
-34 5 -37 6 -4 7 -13 2 -23 -5 -9 -7 -29 -6 -45 2 -19 -1 -25 -9 -21 -7 4 -4
-2 6 -13 9 -11 14 -23 10 -26 -3 -4 -6 -20 -5 -37 0 -21 -3 -28 -11 -24 -8 5
-8 3 1 -7 14 -16 16 -33 2 -24 -6 3 -7 -1 -4 -9 3 -9 11 -13 18 -9 6 3 6 1 -1
-8 -16 -16 -17 -33 -1 -23 7 5 8 3 2 -7 -4 -8 -9 -45 -9 -84 -1 -75 -11 -87
-48 -56 -16 14 -17 13 -11 -4 5 -11 4 -16 -3 -12 -5 3 -10 0 -10 -8 0 -11 4
-12 13 -4 8 7 14 6 20 -2 4 -7 3 -9 -3 -6 -5 3 -17 -9 -26 -27 -12 -26 -13
-36 -4 -45 9 -9 7 -11 -8 -6 -12 4 -15 3 -9 -2 19 -14 21 -38 5 -51 -14 -12
-14 -13 2 -8 9 3 17 1 17 -4 0 -6 -8 -10 -17 -10 -17 -1 -17 -1 0 -11 9 -5 17
-15 17 -22 0 -7 -4 -6 -10 3 -8 13 -11 13 -22 1 -11 -11 -11 -13 0 -6 12 6 12
3 2 -16 -16 -30 -25 -39 -17 -17 3 10 1 20 -5 24 -7 5 -8 2 -3 -6 6 -10 4 -12
-9 -7 -14 6 -15 4 -4 -16 15 -27 19 -49 8 -42 -5 3 -11 1 -15 -4 -3 -6 -13 -7
-23 -4 -16 6 -16 6 1 -11 20 -21 22 -30 4 -23 -8 3 -14 -1 -14 -9 0 -9 6 -13
16 -9 11 4 13 3 6 -4 -5 -5 -22 -12 -37 -15 -15 -2 -32 -7 -37 -10 -9 -6 -6
-50 5 -67 5 -9 -39 -5 -56 6 -9 6 -11 4 -5 -5 6 -10 4 -12 -9 -7 -11 4 -15 3
-11 -4 4 -6 14 -8 22 -5 8 4 11 1 7 -5 -3 -6 -14 -9 -23 -6 -11 3 -17 -2 -17
-14 0 -10 5 -15 10 -12 5 4 1 -5 -10 -19 -16 -21 -21 -23 -29 -11 -9 12 -14
11 -29 -6 -23 -25 -35 -26 -50 -6 -8 11 -15 12 -26 4 -12 -9 -11 -10 5 -4 11
3 16 3 12 -1 -4 -4 -1 -14 6 -22 9 -13 9 -14 0 -8 -8 4 -13 1 -13 -9 0 -15 -1
-15 -16 -1 -21 22 -23 21 -19 -17 3 -17 1 -27 -3 -22 -8 12 -27 13 -37 3 -4
-4 -12 -4 -19 -2 -7 3 -24 0 -38 -5 -18 -7 -29 -6 -38 2 -9 8 -11 8 -7 1 4 -7
-1 -18 -10 -25 -14 -12 -15 -11 -9 11 6 21 5 22 -4 7 -12 -19 -35 -13 -24 6 4
7 3 9 -1 4 -13 -11 -16 -45 -5 -52 6 -3 7 1 4 10 -5 11 -2 14 10 9 9 -3 16
-11 16 -18 0 -7 4 -6 9 2 4 8 12 14 17 14 5 0 8 3 7 7 -4 16 40 4 49 -13 9
-16 7 -16 -10 -7 -30 16 -36 14 -21 -6 12 -16 12 -17 -1 -6 -9 7 -21 8 -29 4
-7 -4 -28 -6 -48 -4 -22 2 -32 0 -28 -7 3 -6 0 -7 -9 -4 -9 3 -13 10 -10 15 3
5 -2 6 -10 3 -9 -3 -13 -11 -10 -16 4 -6 -3 -5 -15 1 -15 8 -27 9 -40 1 -13
-7 -22 -7 -26 0 -3 5 -11 10 -16 10 -6 0 -8 -4 -5 -8 3 -5 -1 -9 -9 -9 -8 0
-15 4 -15 8 0 8 -52 5 -68 -5 -7 -4 -12 -3 -12 3 0 6 -11 6 -30 1 -18 -5 -30
-5 -30 1 0 5 -5 9 -11 9 -5 0 -7 -5 -4 -10 13 -21 -18 -4 -51 28 -18 19 -38
31 -44 27 -15 -9 -41 14 -33 29 4 6 0 5 -9 -2 -11 -9 -18 -10 -23 -2 -3 5 -11
10 -18 10 -6 0 -3 -6 8 -13 14 -11 15 -16 5 -22 -9 -5 -11 -4 -6 3 5 8 -1 12
-14 12 -12 0 -19 4 -16 8 6 11 -36 9 -53 -2 -10 -6 -12 -6 -7 2 4 7 2 12 -5
12 -8 0 -9 3 0 13 6 8 8 17 4 20 -3 4 -1 7 5 7 7 0 12 5 12 11 0 5 -4 8 -9 4
-5 -3 -16 1 -24 9 -8 8 -17 13 -19 10 -3 -2 -11 2 -18 11 -7 8 -17 15 -22 15
-6 0 0 -8 13 -18 15 -13 19 -21 11 -26 -7 -4 -12 -2 -12 4 0 6 -5 8 -12 4 -7
-4 -8 -3 -4 4 4 7 1 12 -8 12 -8 0 -18 5 -22 12 -5 7 -3 8 6 3 10 -6 12 -4 7
7 -3 9 -1 20 5 26 6 6 6 12 -3 17 -8 6 -10 4 -4 -5 6 -9 4 -11 -4 -6 -7 5 -10
15 -7 23 4 8 1 11 -5 8 -6 -4 -10 -1 -8 6 3 26 -1 49 -9 49 -10 0 -9 -51 2
-68 7 -11 4 -11 -13 0 -12 7 -19 18 -17 24 2 6 -1 17 -7 24 -9 10 -9 11 2 5
11 -6 13 -4 8 9 -4 10 -7 21 -7 24 0 4 -5 0 -10 -8 -6 -9 -10 -10 -10 -3 0 6
4 14 10 18 5 3 6 13 3 22 -5 12 -3 14 8 8 11 -7 12 -6 2 6 -6 8 -11 16 -10 19
0 3 -4 14 -10 25 -10 17 -14 18 -25 6 -9 -10 -9 -12 -1 -7 8 5 11 2 7 -7 -6
-16 -28 -17 -41 -2 -4 4 -3 5 3 2 12 -7 24 12 30 46 2 10 -2 17 -11 17 -8 0
-15 -5 -15 -11 0 -5 4 -7 10 -4 6 3 7 -1 4 -10 -4 -9 -9 -13 -12 -11 -3 3 -12
0 -21 -7 -14 -10 -14 -10 -4 4 12 15 11 77 -1 97 -3 6 -1 14 5 18 7 4 9 3 5
-4 -3 -6 -2 -13 3 -17 12 -7 5 35 -8 48 -5 5 -7 16 -4 23 4 12 8 12 22 2 14
-11 14 -11 4 3 -7 9 -14 28 -15 43 -1 14 -7 26 -12 26 -5 0 -2 6 8 13 14 11
16 18 9 33 -9 17 -10 28 -3 59 5 23 -1 36 -12 29 -9 -5 -9 -2 1 9 7 9 9 17 4
17 -5 0 -10 7 -10 15 0 11 4 12 14 3 11 -9 12 -7 6 8 -3 10 -11 22 -17 26 -7
5 -7 8 2 8 6 0 12 5 12 11 0 5 -4 8 -8 5 -5 -3 -9 2 -9 10 0 8 6 13 13 10 13
-5 13 19 -1 31 -4 5 -5 1 0 -7 5 -8 4 -12 0 -7 -12 10 -15 38 -4 31 5 -3 9 0
9 5 0 6 -6 11 -12 11 -10 0 -10 2 0 9 16 9 15 20 -1 40 -10 12 -9 14 6 8 14
-5 16 -3 9 11 -5 9 -7 23 -4 31 3 9 0 11 -9 6 -8 -5 -5 2 5 14 14 15 15 20 5
16 -11 -4 -15 2 -14 25 0 20 4 29 13 25 9 -3 10 0 3 14 -6 10 -7 21 -4 25 3 3
1 6 -6 6 -7 0 -9 5 -6 10 4 6 11 8 16 5 5 -3 6 1 3 9 -3 9 -10 13 -15 10 -5
-3 -9 0 -9 5 0 6 5 11 11 11 8 0 7 6 -2 17 -12 14 -12 16 0 8 11 -6 13 -4 8 8
-4 10 -1 17 6 17 8 0 7 4 -3 9 -8 6 -19 7 -25 3 -5 -3 -4 1 2 10 7 8 9 19 5
24 -4 4 1 2 11 -5 15 -12 17 -12 11 3 -3 9 -11 16 -18 16 -7 0 -6 4 3 9 9 6
10 11 2 15 -7 5 -7 15 0 32 8 23 7 25 -8 20 -15 -5 -14 -3 2 9 17 14 18 17 5
25 -13 8 -13 11 -1 22 10 10 12 10 7 1 -10 -18 -1 -16 14 3 8 8 9 14 4 13 -21
-4 -30 2 -31 21 -1 11 3 20 8 20 6 0 3 7 -5 16 -9 8 -13 20 -10 26 4 7 0 7
-12 0 -27 -14 -83 -9 -94 8 -7 12 -12 12 -22 2 -9 -9 -9 -12 2 -12 7 0 11 -2
8 -5 -10 -11 -39 7 -31 19 5 7 -2 0 -15 -14 -19 -21 -22 -22 -17 -5 6 19 6 19
-8 2 -14 -17 -15 -17 -22 0 -5 10 -7 22 -6 26 1 5 -3 6 -9 2 -6 -3 -8 -11 -5
-16 4 -5 -16 -9 -44 -9 -27 0 -53 -4 -56 -10 -3 -5 -12 -10 -18 -10 -7 0 -6 4
3 10 13 8 13 10 -1 10 -9 0 -19 -3 -23 -7 -11 -12 -66 -12 -66 -1 0 6 3 8 7 5
3 -4 13 -1 21 6 9 6 13 7 9 1 -3 -6 0 -11 8 -11 11 0 10 5 -2 24 -18 27 -25
30 -16 5 6 -15 5 -16 -12 -2 -10 8 -16 10 -12 3 11 -18 -10 -25 -35 -13 -21
11 -21 10 2 -10 14 -12 19 -18 11 -14 -11 5 -13 3 -8 -12 6 -14 3 -13 -11 5
-18 22 -50 22 -37 0 3 -5 -1 -6 -10 -3 -13 5 -13 9 -3 23 11 14 11 14 -2 5 -8
-6 -32 -10 -54 -9 -24 2 -33 -1 -25 -6 13 -8 5 -13 -14 -10 -14 3 -2 -22 13
-27 8 -3 10 0 5 8 -6 9 -4 11 5 5 8 -5 11 -4 7 2 -4 6 -1 13 6 16 7 3 13 -5
14 -21 1 -18 -1 -21 -8 -11 -8 12 -13 6 -10 -13 0 -3 -14 -2 -32 3 -39 11 -40
11 -32 -1 4 -6 -1 -7 -11 -3 -13 5 -15 3 -9 -8 7 -11 6 -12 -6 -2 -12 10 -18
10 -29 0 -12 -10 -12 -9 -3 3 10 13 8 16 -8 16 -10 0 -19 -5 -19 -10 0 -5 -3
-6 -7 -3 -3 4 -13 1 -21 -6 -10 -7 -13 -8 -9 -1 4 7 -2 14 -13 17 -11 3 -18 1
-15 -3 3 -5 1 -11 -5 -15 -5 -3 -10 -1 -10 5 0 6 -5 8 -12 3 -19 -11 -39 -13
-32 -2 3 5 0 9 -5 9 -6 0 -11 -6 -11 -12 0 -8 -3 -9 -8 -3 -11 15 -32 17 -32
3 0 -9 -4 -8 -10 2 -5 8 -10 10 -10 4 0 -6 -7 -11 -15 -11 -8 0 -15 5 -15 11
0 6 -5 5 -12 -2 -18 -18 -31 -15 -24 6 5 14 3 13 -9 -3 -14 -17 -17 -18 -25
-5 -9 13 -10 13 -10 0 0 -13 -1 -13 -10 0 -5 8 -10 10 -10 4 0 -7 -7 -15 -16
-18 -10 -4 -13 -2 -8 6 4 6 3 8 -4 4 -6 -3 -14 -1 -18 5 -5 8 -13 4 -26 -12
l-19 -24 7 25 c6 23 5 24 -10 11 -15 -13 -19 -13 -27 0 -7 11 -9 11 -9 -3 0
-10 -4 -18 -10 -18 -5 0 -7 6 -4 13 3 8 -2 14 -10 14 -8 0 -12 -6 -9 -13 6
-16 -14 -27 -23 -13 -5 8 -3 9 7 4 12 -8 12 -6 0 8 -14 18 -26 23 -16 8 3 -6
-12 -10 -32 -11 -87 -2 -103 -4 -103 -13 0 -6 -3 -7 -7 -4 -3 4 -13 1 -21 -6
-13 -10 -15 -9 -10 3 4 11 0 16 -13 16 -17 0 -17 -2 -2 -18 9 -10 11 -18 5
-18 -6 0 -14 4 -17 10 -4 6 -13 5 -25 -2 -10 -7 -16 -16 -13 -21 3 -4 -3 -17
-12 -27 -18 -20 -25 -96 -11 -119 4 -6 4 -11 -1 -11 -9 0 -8 -134 2 -149 3 -6
3 -11 -2 -11 -9 0 -9 -118 0 -127 3 -3 2 -15 -3 -27 -4 -13 -4 -29 1 -39 6 -9
6 -17 2 -17 -9 0 -8 -148 1 -157 2 -3 1 -15 -4 -27 -4 -13 -4 -29 1 -39 6 -9
6 -17 2 -17 -4 0 -8 -34 -8 -75 0 -41 3 -75 7 -75 4 0 3 -13 -2 -28 -4 -16 -4
-36 1 -45 5 -8 5 -18 1 -21 -9 -5 -7 -75 2 -84 3 -2 1 -13 -5 -23 -7 -13 -6
-19 1 -19 7 0 8 -6 1 -19 -6 -10 -8 -21 -4 -24 3 -4 6 -42 6 -86 0 -59 3 -78
12 -75 7 3 19 -2 28 -10 8 -8 16 -13 18 -11 3 2 5 -10 6 -27 0 -20 -2 -26 -7
-17 -5 7 -6 17 -3 23 4 5 0 6 -8 1 -8 -5 -11 -5 -7 0 11 12 -11 35 -28 28 -11
-4 -8 -10 11 -25 14 -11 25 -26 25 -34 0 -8 8 -14 18 -15 14 0 14 -2 -3 -9
-17 -7 -17 -9 -2 -9 19 -1 23 -16 5 -27 -7 -5 -8 -2 -3 7 5 8 4 11 -1 6 -5 -5
-9 -12 -9 -15 0 -4 -3 -12 -7 -18 -4 -6 -1 -11 7 -11 8 0 12 3 10 7 -2 4 2 7
9 7 20 0 14 -22 -15 -54 -13 -15 -17 -22 -8 -15 14 10 18 10 23 -3 3 -8 0 -15
-6 -15 -9 0 -9 -3 0 -12 16 -16 16 -41 -1 -32 -6 4 -3 -2 8 -13 11 -11 24 -18
29 -15 5 3 6 0 2 -6 -5 -9 -15 -7 -34 5 -27 17 -27 17 -9 -3 9 -11 14 -24 10
-29 -5 -4 -2 -5 5 -1 6 4 12 4 13 -1 4 -43 7 -54 14 -60 4 -5 6 -1 3 8 -4 9
-2 22 3 30 6 10 9 10 9 1 0 -6 5 -11 12 -10 7 2 12 -13 13 -39 1 -25 -3 -43
-9 -43 -6 0 -3 -5 6 -10 13 -8 15 -17 8 -40 -5 -17 -5 -28 -1 -26 4 3 13 -5
20 -17 11 -18 11 -20 0 -9 -20 19 -29 14 -20 -10 4 -13 6 -29 3 -37 -3 -9 1
-11 17 -6 13 4 21 2 21 -6 0 -8 5 -7 17 2 15 13 15 12 4 -10 -9 -17 -16 -20
-24 -12 -6 6 -16 11 -21 11 -6 0 0 -7 12 -16 12 -8 20 -19 18 -23 -3 -4 1 -8
9 -8 12 0 12 3 2 16 -11 14 -10 14 6 2 22 -17 22 -28 0 -34 -17 -4 -17 -5 0
-6 16 -1 21 -12 18 -40 -2 -8 2 -10 10 -5 8 4 10 3 5 -4 -4 -6 -14 -9 -24 -6
-14 5 -15 4 -2 -5 13 -9 13 -11 0 -11 -10 0 -7 -5 8 -16 28 -19 29 -34 2 -29
-11 2 -18 0 -15 -5 3 -4 13 -7 23 -5 9 1 23 -3 31 -9 11 -8 13 -8 8 0 -7 12
21 29 31 19 3 -3 0 -5 -6 -5 -15 0 -11 -22 7 -36 11 -8 11 -13 2 -18 -9 -6 -9
-11 1 -24 7 -9 8 -13 2 -9 -6 3 -11 0 -11 -8 0 -8 5 -11 10 -8 6 4 8 0 4 -10
-3 -9 -2 -19 3 -22 5 -3 7 -12 4 -20 -6 -15 20 -15 33 0 5 4 1 5 -7 0 -8 -5
-12 -5 -8 0 4 4 0 14 -10 22 -16 12 -16 13 1 7 9 -3 17 -1 17 5 0 6 4 11 8 11
5 0 8 -12 7 -27 -2 -37 5 -54 19 -46 6 4 4 -2 -4 -12 -9 -11 -10 -16 -2 -11 6
4 12 2 12 -3 0 -6 -5 -11 -11 -11 -7 0 0 -9 15 -21 16 -13 33 -18 46 -14 16 5
19 3 13 -11 -4 -12 -3 -15 5 -10 7 4 12 2 12 -3 0 -6 -4 -11 -9 -11 -13 0 -7
-28 9 -43 10 -9 11 -9 6 1 -4 6 -2 12 3 12 6 0 11 -10 12 -22 0 -17 2 -19 7
-8 4 8 13 16 21 18 12 3 12 0 2 -12 -11 -13 -10 -15 8 -11 12 2 19 0 16 -6 -4
-5 -11 -7 -16 -4 -5 4 -9 2 -9 -4 0 -6 9 -15 20 -21 11 -6 19 -14 17 -18 -1
-4 3 -7 8 -7 6 0 9 4 7 8 -1 5 2 6 8 2 6 -3 8 -11 5 -16 -4 -5 -1 -9 5 -9 6 0
8 -11 6 -23 -2 -13 0 -30 4 -37 10 -17 47 -23 55 -10 10 16 25 1 18 -17 -5
-11 -3 -14 6 -8 10 6 11 3 2 -13 -10 -18 -8 -20 14 -18 29 4 39 -17 24 -47 -9
-20 -9 -20 4 -5 11 14 16 15 27 5 12 -10 12 -9 1 6 -7 9 -10 17 -6 17 4 0 1 8
-6 18 -13 15 -12 16 3 4 10 -8 16 -19 15 -25 -1 -7 3 -11 10 -10 9 2 10 -4 3
-22 -8 -20 -6 -27 5 -31 8 -3 18 -3 24 0 5 4 12 2 16 -3 3 -6 12 -8 19 -5 7 3
16 -2 20 -11 3 -9 2 -14 -3 -11 -5 3 -12 -1 -15 -10 -3 -8 -2 -13 3 -10 5 3
12 -1 15 -10 5 -12 10 -13 19 -5 10 8 19 6 36 -5 17 -12 26 -13 34 -5 24 24
29 10 6 -16 l-24 -28 25 20 c14 11 27 23 30 26 3 4 12 0 20 -9 13 -14 12 -15
-2 -9 -10 3 -22 -1 -29 -11 -11 -14 -11 -15 0 -5 14 12 41 7 41 -8 0 -4 -7 -6
-16 -2 -12 4 -10 -2 7 -20 12 -15 25 -27 28 -27 3 0 0 5 -7 12 -20 20 -13 32
8 13 24 -22 27 -9 3 17 -9 10 -13 18 -10 18 13 0 46 -44 40 -53 -3 -6 -1 -7 6
-3 6 4 9 11 6 16 -3 5 0 12 6 16 7 4 9 3 6 -2 -3 -6 -2 -16 4 -24 6 -10 9 -11
9 -2 0 6 5 12 11 12 5 0 8 -4 4 -9 -3 -5 -1 -12 4 -15 5 -4 13 -1 17 5 5 8 3
9 -7 4 -12 -7 -12 -6 0 6 11 11 14 11 18 1 4 -9 8 -10 18 -2 11 9 12 7 8 -9
-3 -12 -9 -18 -14 -15 -5 3 -6 -2 -3 -10 3 -9 17 -16 29 -16 13 0 26 -6 28
-12 4 -10 6 -10 6 -1 1 15 -34 35 -43 25 -4 -3 -4 2 0 12 5 14 9 15 15 4 6 -8
9 -9 9 -2 0 7 7 15 16 18 14 5 15 4 5 -8 -10 -12 -10 -20 3 -38 11 -15 16 -17
16 -8 0 13 2 13 10 0 9 -13 11 -13 20 0 5 8 10 10 10 4 0 -6 11 -11 25 -11 16
0 22 4 18 11 -4 6 1 5 10 -2 9 -8 25 -11 37 -7 12 4 20 2 20 -5 0 -6 -6 -8
-12 -4 -7 4 -6 -1 3 -12 9 -10 14 -26 12 -34 -2 -8 3 -4 12 10 15 23 15 24 10
3 -6 -22 4 -31 18 -17 12 13 -13 43 -31 38 -15 -5 -14 -4 2 10 14 11 24 13 37
5 23 -12 25 -21 3 -12 -14 5 -15 3 -4 -16 9 -17 9 -26 -1 -37 -7 -8 -7 -14 -1
-14 5 0 12 6 15 14 7 17 29 15 51 -3 14 -12 16 -12 11 2 -4 8 -1 18 6 23 7 4
10 3 6 -3 -4 -6 4 -10 18 -10 16 0 22 4 18 11 -5 8 -3 8 8 0 8 -6 38 -10 67
-10 33 1 52 -3 52 -10 0 -7 7 -14 15 -18 8 -3 15 0 15 7 0 19 50 16 51 -2 0
-12 2 -12 6 -3 4 10 9 9 19 -5 11 -14 13 -14 9 -2 -3 9 2 22 12 30 16 12 17
12 6 -1 -8 -10 -9 -21 -3 -30 8 -12 10 -12 10 3 0 10 4 15 10 12 5 -3 20 0 32
6 20 11 21 10 11 -3 -10 -12 -10 -15 2 -15 8 0 15 7 15 14 0 12 3 11 16 -1 20
-21 38 -20 30 1 -6 14 -4 14 14 -2 21 -19 22 -19 32 -2 9 17 11 17 34 2 26
-17 32 -8 11 15 -6 8 -3 7 9 -3 23 -19 39 -23 29 -7 -3 6 -1 10 4 10 6 0 11
-6 11 -12 0 -9 4 -8 10 2 5 8 10 10 10 4 0 -7 7 -15 16 -18 15 -6 14 -3 -1 21
-13 20 -14 24 -4 16 12 -10 18 -10 29 0 12 10 12 9 2 -4 -6 -9 -9 -19 -5 -23
4 -4 12 3 18 15 11 19 13 19 18 5 4 -10 3 -15 -3 -11 -6 3 -10 1 -10 -4 0 -14
17 -14 25 -1 3 5 13 7 23 4 14 -5 15 -4 2 5 -9 6 -10 11 -3 11 12 0 12 17 -1
40 -7 12 -6 13 5 2 15 -14 33 -16 25 -3 -3 4 6 7 19 5 14 -1 27 2 30 6 3 5 12
7 20 4 8 -4 12 -11 8 -18 -4 -6 1 -5 10 3 20 16 157 21 157 6 0 -5 7 -1 15 9
8 11 15 15 15 9 0 -13 58 -12 79 1 10 6 12 5 7 -2 -4 -7 -1 -12 9 -12 10 0 13
5 9 13 -5 8 -2 8 9 -2 14 -11 17 -11 17 0 0 11 2 11 10 -1 9 -13 10 -13 10 0
0 9 3 11 8 5 4 -5 19 -10 35 -11 23 -1 25 1 15 15 -11 13 -9 13 14 -2 19 -12
29 -14 34 -5 4 6 3 8 -3 5 -5 -3 -9 4 -8 16 1 16 8 22 23 21 12 -1 22 3 22 8
0 6 6 8 14 5 7 -3 19 0 26 6 10 9 11 9 5 -1 -5 -9 -1 -12 11 -10 12 2 18 -2
16 -11 -3 -12 0 -12 12 -1 17 13 22 25 7 16 -5 -3 -11 0 -14 7 -3 7 4 12 18
12 13 0 21 -3 19 -6 -2 -4 5 -9 17 -12 17 -5 18 -3 8 9 -10 12 -10 15 2 12 8
-2 13 3 11 10 -1 8 2 11 8 7 6 -3 8 -10 5 -15 -3 -5 -1 -12 5 -15 6 -4 10 -3
9 2 -3 19 2 34 10 28 5 -3 13 0 17 6 4 8 3 9 -4 5 -7 -4 -12 -1 -12 9 0 10 5
13 13 9 8 -5 8 -2 -2 9 -11 14 -11 17 1 17 8 0 20 -6 27 -12 11 -10 13 -10 7
0 -10 16 26 16 43 0 10 -11 11 -9 5 6 -6 16 -4 17 14 7 15 -8 21 -8 25 2 4 9
7 9 17 0 11 -10 16 -9 27 5 8 9 12 12 9 6 -4 -8 5 -11 23 -10 19 0 27 5 24 13
-3 7 -10 10 -17 6 -6 -3 -5 0 2 8 11 12 14 12 22 -1 6 -9 10 -10 10 -3 0 7 -8
17 -17 22 -16 9 -15 10 5 11 13 0 21 4 18 9 -4 5 2 8 11 6 10 -2 22 -4 27 -4
5 -1 2 -9 -5 -18 -13 -17 -12 -17 4 -4 10 8 25 27 33 43 8 15 20 28 27 28 8 0
8 -3 -2 -9 -8 -5 -10 -14 -6 -21 5 -8 4 -11 -2 -7 -5 3 -10 0 -10 -8 0 -8 4
-15 9 -15 8 0 12 16 9 33 -1 5 4 7 11 4 7 -2 12 -10 10 -17 -3 -11 0 -11 12 0
17 14 20 21 9 19 -21 -3 -23 2 -8 18 14 14 18 14 26 2 7 -11 9 -11 9 -1 0 7 5
10 10 7 6 -3 10 -2 10 3 0 18 -27 21 -49 6 -12 -9 -21 -11 -21 -5 0 6 5 11 11
11 5 0 8 4 5 8 -2 4 7 7 22 7 28 -1 55 12 48 24 -3 4 5 8 17 8 18 2 19 0 7 -8
-13 -9 -13 -10 1 -6 9 3 23 0 30 -6 7 -7 6 -3 -4 9 -9 11 -14 23 -11 27 4 4
-3 4 -15 2 -12 -2 -19 0 -16 6 4 5 10 7 15 4 5 -3 11 -1 15 4 3 6 15 7 29 1
17 -6 28 -4 41 8 10 9 15 11 11 5 -5 -9 1 -12 18 -11 13 1 22 6 20 10 -3 5 -9
6 -13 4 -4 -3 -8 1 -8 8 0 8 6 12 12 10 7 -3 11 4 10 18 -3 32 4 41 21 27 8
-6 14 -8 14 -3 0 5 4 4 8 -2 5 -9 11 -8 20 2 11 13 9 14 -13 10 -14 -3 -23 -1
-20 4 3 5 19 7 35 5 16 -2 32 0 35 6 9 14 27 11 19 -3 -4 -7 4 -3 16 9 19 17
21 25 11 36 -9 12 -8 16 8 20 11 2 25 0 31 -7 9 -8 11 -8 8 3 -2 7 3 16 11 19
9 3 11 0 6 -9 -5 -8 1 -5 13 5 26 23 26 21 6 40 -9 9 -11 16 -4 16 6 0 9 4 5
9 -3 6 6 8 21 5 19 -3 24 -1 18 8 -4 7 3 4 16 -7 l23 -20 -13 24 c-10 20 -10
23 2 19 9 -4 14 1 14 12 0 10 -4 16 -9 13 -5 -3 -1 6 8 21 16 24 34 39 20 16
-3 -5 -3 -10 2 -11 4 0 16 -2 26 -4 9 -2 15 1 11 6 -3 5 -10 6 -16 3 -7 -4 -8
-2 -4 4 4 6 12 9 19 6 15 -5 17 33 3 56 -6 10 -2 8 12 -3 21 -19 25 -7 8 23
-5 8 -6 12 -1 8 4 -4 13 0 20 9 9 13 14 13 20 3 5 -8 4 -11 -2 -7 -6 4 -13 1
-16 -7 -3 -8 1 -17 9 -20 10 -4 12 -2 8 6 -5 7 0 9 13 6 18 -5 20 -1 17 34 -3
33 -1 39 12 34 8 -3 12 -2 9 3 -3 5 -1 12 5 16 5 3 10 11 10 17 0 7 -4 7 -13
-1 -10 -8 -14 -7 -14 3 0 8 7 13 16 11 9 -1 15 -11 14 -22 -1 -11 3 -20 10
-20 7 0 11 13 11 31 -1 17 3 36 8 43 5 7 6 18 2 25 -6 11 -5 11 8 0 13 -10 18
-10 24 -1 4 7 3 9 -3 6 -6 -4 -14 0 -17 9 -4 10 -2 13 6 8 8 -5 9 -2 5 10 -4
10 -3 15 4 11 5 -4 17 -1 26 7 15 11 16 11 10 -7 -6 -17 -4 -17 13 4 20 24 27
47 11 37 -5 -4 -7 2 -4 12 2 10 13 24 25 31 11 7 17 8 14 2 -4 -5 -1 -13 5
-17 8 -5 9 -3 4 6 -6 10 -4 12 8 7 9 -3 19 -1 23 5 4 6 3 8 -4 4 -16 -10 -26
14 -12 27 10 9 11 9 5 -3 -6 -12 -5 -12 5 -3 10 9 10 15 -4 28 -20 21 -21 32
0 15 8 -8 14 -9 13 -4 -1 5 -1 27 0 48 1 36 2 38 15 21 12 -17 13 -15 11 20
-1 32 0 35 11 20 7 -9 10 -23 7 -31 -9 -23 3 -16 22 13 16 23 16 25 1 20 -9
-4 -16 -2 -16 3 0 6 9 10 20 10 22 0 25 7 11 29 -6 9 -6 22 -1 31 6 11 5 21
-1 27 -8 8 -8 13 0 17 5 4 7 14 4 24 -4 13 -2 13 10 -3 8 -11 13 -24 9 -30 -3
-5 4 -2 15 8 11 9 24 14 28 10 5 -5 1 4 -8 19 -12 19 -14 29 -5 34 7 4 8 3 4
-4 -4 -7 -3 -12 2 -12 5 0 12 9 15 20 3 11 1 18 -4 14 -5 -3 -9 0 -9 5 0 6 4
11 9 11 10 0 9 19 -2 37 -4 6 -2 15 4 19 8 4 7 9 -2 15 -11 7 -10 9 4 9 21 0
22 9 0 25 -13 9 -13 14 -3 20 9 5 11 4 6 -3 -4 -7 -3 -12 3 -12 5 0 18 -3 28
-6 17 -5 17 -5 0 6 -9 6 -15 16 -11 21 4 6 10 6 19 -1 9 -8 15 -8 20 0 3 6 11
7 17 4 7 -4 8 -2 4 5 -4 6 -12 9 -17 6 -5 -4 -17 -1 -26 5 -14 8 -14 10 -3 9
32 -3 51 1 45 11 -3 5 -13 7 -23 4 -14 -5 -14 -4 -2 4 8 6 17 9 21 6 4 -2 11
1 15 7 4 7 3 9 -3 6 -12 -8 -39 20 -29 30 3 3 6 2 6 -4 0 -5 6 -10 13 -10 7 0
12 13 11 31 -1 17 4 35 10 39 6 5 0 6 -14 2 -21 -5 -23 -4 -10 7 18 16 18 51
-1 75 -13 17 -13 17 7 0 20 -16 21 -16 19 1 0 9 -5 24 -10 32 -8 13 -6 13 8 1
9 -7 15 -17 12 -21 -3 -5 -1 -11 5 -15 9 -5 15 15 11 38 -1 4 6 10 14 13 12 5
13 9 4 20 -6 8 -7 14 -2 14 5 0 9 19 8 43 -1 23 3 45 9 49 7 5 6 8 -3 8 -11 0
-11 3 -1 15 7 9 8 15 2 15 -11 0 -11 18 0 35 4 6 3 17 -2 25 -5 9 -5 19 2 27
6 8 7 13 1 13 -8 0 -9 18 -4 63 1 5 7 5 14 1 9 -6 9 -4 -1 8 -11 14 -10 16 5
14 10 -2 18 -8 18 -14 0 -6 4 -14 9 -19 5 -4 6 -3 3 4 -4 6 5 21 20 33 21 16
23 19 6 10 -20 -9 -23 -8 -23 9 0 11 6 22 13 24 10 4 10 6 0 6 -7 1 -13 5 -13
10 0 6 9 8 19 6 14 -3 18 1 14 12 -5 12 -7 12 -14 1 -6 -9 -8 -6 -7 9 2 14 7
19 18 16 13 -4 13 -3 1 5 -13 9 -13 13 0 28 8 10 9 15 3 11 -7 -4 -14 2 -17
14 -4 15 -2 18 7 10 9 -8 13 -7 13 4 0 8 -7 15 -16 15 -11 0 -11 3 5 16 19 15
19 16 -1 10 -19 -6 -19 -5 -2 8 24 19 21 29 -5 16 -21 -10 -21 -9 2 9 20 17
22 21 8 21 -10 0 -18 4 -18 9 0 14 26 32 35 23 5 -4 5 -1 1 6 -4 7 -13 9 -19
5 -7 -4 -5 2 3 12 8 10 10 16 4 12 -6 -3 -11 0 -11 8 0 8 4 12 9 9 4 -3 8 0 8
5 0 6 -8 11 -17 12 -15 0 -15 2 -3 7 17 8 25 32 11 32 -5 0 -12 -6 -14 -12 -4
-10 -6 -10 -6 0 -1 7 6 15 14 18 14 6 13 8 -2 20 -13 10 -14 14 -3 12 10 -2
14 6 14 27 0 19 -5 29 -13 27 -7 -1 -10 2 -6 8 3 6 11 8 16 5 5 -4 9 -1 9 4 0
6 -4 11 -9 11 -5 0 -12 7 -15 16 -5 13 -3 14 6 6 10 -8 13 -3 14 24 1 19 -3
34 -8 34 -5 0 -6 -5 -2 -12 5 -7 3 -8 -6 -3 -10 6 -10 11 4 20 14 11 15 13 1
19 -8 3 -15 11 -14 18 0 10 2 10 6 1 10 -25 21 -12 19 20 -2 19 -8 31 -15 29
-7 -1 -10 2 -6 8 3 6 11 8 16 5 5 -4 9 -1 9 4 0 6 -4 11 -9 11 -5 0 -12 7 -15
16 -5 13 -4 14 7 6 10 -9 14 -8 14 3 0 8 -4 15 -8 15 -4 0 -10 7 -13 16 -5 13
-3 14 6 6 11 -8 13 2 13 51 0 34 -4 65 -8 68 -5 3 -1 13 8 23 15 14 15 16 1
16 -9 0 -16 -5 -16 -11 0 -5 -5 -7 -11 -3 -6 3 -7 9 -3 13 5 3 10 11 11 16 5
29 9 41 18 47 6 5 5 8 -2 8 -17 0 -17 27 0 33 6 2 -8 4 -33 3 -34 -1 -45 3
-45 14 0 8 -4 18 -10 22 -6 5 -6 8 2 8 6 0 18 -8 25 -17 16 -22 39 -28 32 -8
-3 8 -9 13 -13 12 -3 -1 -17 8 -31 20 -16 16 -19 23 -9 23 8 0 10 3 4 8 -14
10 -14 105 -1 114 7 5 7 8 1 8 -6 0 -10 31 -10 75 0 41 -3 75 -7 75 -5 0 -8 5
-8 11 0 5 5 7 12 3 7 -5 8 -3 4 5 -5 7 -15 10 -23 6 -13 -4 -13 -3 -4 9 9 11
8 15 -3 19 -9 4 -18 1 -22 -5 -4 -7 -3 -8 4 -4 8 5 10 2 6 -8 -5 -12 -9 -13
-19 -3 -7 7 -9 13 -4 15 5 2 4 13 -3 25 -9 19 -9 20 3 12 8 -5 6 -2 -4 7 -17
16 -17 18 -3 18 14 0 15 4 5 21 -9 17 -8 23 2 30 12 8 6 13 -12 11 -3 -1 -6 5
-6 13 0 8 4 12 9 9 4 -3 8 2 8 11 0 9 -4 13 -10 10 -5 -3 -10 1 -10 9 0 8 -9
18 -21 21 -11 4 -18 9 -16 12 3 2 20 -3 39 -12 l33 -16 -25 22 c-14 12 -24 26
-22 32 2 5 -9 2 -24 -8 -14 -9 -23 -12 -20 -6 4 6 0 11 -11 11 -10 0 -14 3 -8
8 6 4 10 17 9 29 -1 12 2 21 6 18 4 -2 7 2 7 9 0 8 -6 12 -13 9 -13 -5 -12 25
1 47 3 6 1 10 -4 10 -6 0 -10 5 -8 11 1 6 -4 14 -12 17 -9 3 -11 0 -6 -8 6 -9
3 -9 -13 -1 -13 7 -19 17 -16 26 5 11 1 14 -12 9 -15 -5 -16 -4 -5 4 21 15 45
4 30 -14 -7 -9 -8 -14 -1 -14 5 0 12 7 16 15 6 16 -26 39 -39 27 -4 -4 -6 0
-3 8 3 8 -2 21 -11 28 -14 10 -13 11 4 5 20 -6 20 -6 1 15 -11 12 -15 22 -11
22 4 0 0 9 -10 20 -10 11 -23 17 -29 13 -6 -3 -8 -3 -4 2 4 4 -4 27 -17 52
-21 36 -23 48 -14 65 10 18 9 20 -6 14 -13 -4 -16 -2 -12 9 4 8 1 17 -5 21 -7
4 -8 3 -4 -4 4 -7 1 -12 -10 -12 -14 0 -15 -2 -3 -17 13 -16 12 -17 -3 -5 -10
8 -14 20 -11 29 4 10 2 14 -4 10 -5 -3 -10 0 -10 8 0 8 4 15 9 15 4 0 8 5 8
11 0 5 -5 7 -10 4 -7 -4 -9 3 -6 19 3 15 1 24 -5 21 -5 -4 -7 -10 -4 -15 3 -5
1 -11 -4 -15 -6 -3 -8 4 -6 16 3 13 9 25 15 29 5 3 -3 14 -19 23 -28 16 -30
16 -47 0 -14 -14 -17 -15 -12 -3 3 9 0 24 -8 35 -12 16 -12 21 1 36 14 15 14
17 -5 22 -11 3 -18 1 -15 -3 3 -5 1 -12 -5 -15 -6 -4 -9 -1 -8 7 2 7 -4 12
-14 10 -13 -2 -16 2 -11 14 5 13 3 15 -8 9 -12 -8 -12 -6 0 8 10 13 10 17 1
17 -9 0 -9 4 1 17 12 15 12 16 -5 10 -16 -6 -17 -5 -6 8 10 12 9 16 -5 21 -9
4 -22 1 -28 -6 -10 -10 -7 -11 13 -6 21 6 22 5 7 -4 -14 -9 -22 -9 -33 1 -8 6
-12 14 -10 17 8 8 -14 43 -24 37 -4 -3 -6 5 -2 17 4 17 2 20 -11 15 -10 -3
-27 -2 -39 4 -22 9 -21 9 3 4 22 -4 27 -1 32 20 2 14 0 28 -5 31 -4 3 -8 2 -7
-3 3 -20 -2 -33 -13 -30 -16 3 -38 29 -32 39 2 4 0 9 -6 13 -5 3 -10 12 -10
18 0 8 3 8 9 -1 7 -11 9 -11 13 0 7 16 -12 44 -29 43 -19 0 -37 -22 -19 -22 8
0 13 4 10 9 -3 4 2 5 10 2 12 -5 13 -9 3 -19 -7 -8 -14 -9 -18 -3 -3 5 -9 9
-13 9 -3 -1 -5 1 -3 2 6 9 -27 36 -37 30 -6 -4 -5 0 2 9 10 13 10 17 0 20 -8
3 -7 6 4 10 11 5 15 0 14 -14 0 -12 6 -23 14 -25 10 -3 11 -2 4 4 -6 4 -10 16
-8 26 1 9 -7 22 -18 28 -16 9 -19 8 -13 -2 6 -9 3 -11 -9 -6 -10 4 -20 7 -22
7 -3 0 -2 6 2 13 5 8 2 8 -9 -2 -14 -11 -17 -11 -18 0 -1 8 -1 18 0 23 1 5 -6
17 -16 28 -10 11 -17 23 -16 27 1 3 -1 8 -3 10 -2 2 -4 -3 -4 -12 0 -10 -5
-14 -14 -11 -8 3 -13 14 -11 24 4 22 -27 33 -46 16 -11 -9 -11 -8 0 6 7 9 18
15 25 12 7 -3 13 1 13 8 0 7 -12 14 -26 15 -50 3 -70 7 -65 14 2 4 0 10 -6 14
-15 9 -2 25 15 18 8 -3 15 -1 15 4 0 5 -6 10 -12 11 -76 8 -94 18 -76 40 11
13 10 15 -4 9 -10 -3 -18 -4 -18 0 0 3 8 12 18 19 16 12 15 13 -6 14 -16 0
-21 4 -16 13 5 8 2 8 -9 -2 -11 -9 -17 -10 -17 -2 0 6 -5 11 -11 11 -5 0 -7
-4 -4 -10 3 -6 -1 -7 -10 -4 -14 6 -14 8 1 19 14 9 14 14 4 20 -9 5 -11 4 -6
-3 4 -7 3 -12 -2 -12 -10 0 -24 41 -17 49 3 2 5 -1 5 -7 0 -7 4 -12 8 -12 5 0
9 6 9 14 0 8 -8 13 -19 11 -10 -2 -18 0 -18 5 0 5 -8 9 -17 9 -39 1 -52 5 -47
13 3 5 10 6 15 3 16 -11 10 7 -8 21 -17 13 -17 14 0 8 10 -4 17 -1 17 6 0 6
-4 8 -10 5 -5 -3 -10 0 -10 7 0 8 -5 6 -11 -5 -5 -9 -7 -23 -4 -30 4 -6 0 -4
-8 5 -8 10 -18 14 -22 10 -5 -4 -5 -2 -2 4 4 6 -5 16 -18 22 -14 7 -25 17 -26
24 0 7 -4 4 -9 -7 -8 -18 -9 -18 -9 -2 -1 10 -6 15 -11 12 -6 -4 -7 -11 -4
-17 4 -7 2 -8 -5 -4 -17 11 5 36 28 31 10 -2 24 1 32 6 9 6 0 9 -28 9 -32 0
-43 4 -43 16 0 8 -4 12 -10 9 -5 -3 -10 1 -10 10 0 10 5 14 13 9 9 -5 9 -3 -1
7 -11 12 -14 12 -22 -1 -5 -8 -7 -17 -5 -20 2 -3 -5 -6 -15 -6 -11 0 -16 5
-12 15 4 10 1 12 -9 6 -11 -6 -12 -5 -1 6 29 32 5 66 -33 46 -19 -10 -19 -9
-5 8 8 10 10 16 3 12 -7 -4 -17 0 -23 10 -9 15 -10 14 -4 -6 5 -21 4 -22 -9
-10 -10 10 -12 19 -6 32 7 11 6 17 -1 17 -6 0 -9 4 -6 9 7 11 -13 9 -33 -3
-10 -6 -12 -5 -7 2 5 8 -2 12 -21 12 -22 0 -25 2 -13 10 8 5 11 10 6 10 -5 0
-2 8 5 18 10 13 8 12 -10 -3 l-24 -20 12 22 c9 17 8 25 -4 36 -13 13 -55 13
-55 0 0 -3 9 -3 20 0 22 6 48 -17 30 -28 -6 -4 -9 -1 -8 7 2 8 -5 12 -17 10
-19 -2 -79 46 -62 49 4 1 12 3 17 4 6 1 13 3 16 4 4 0 1 7 -6 15 -6 8 -17 13
-25 10 -7 -3 -16 0 -20 6 -5 8 -11 7 -23 -2 -12 -10 -14 -10 -8 0 5 8 1 12
-12 12 -11 0 -23 7 -26 16 -5 14 -9 14 -24 3 -14 -11 -15 -11 -5 0 9 11 8 17
-3 29 -13 12 -13 16 -2 23 7 5 8 9 2 9 -5 0 -15 -5 -22 -12 -9 -9 -16 -8 -30
5 -10 9 -21 14 -25 11 -4 -4 -2 7 3 24 6 23 5 31 -3 29 -7 -1 -11 4 -9 12 3
12 0 12 -12 1 -13 -10 -16 -10 -16 1 0 11 -2 11 -10 -1 -7 -11 -10 -11 -10 -2
0 7 -4 11 -8 8 -4 -2 -14 0 -22 6 -13 8 -12 9 2 5 13 -5 16 0 14 21 -2 14 -9
28 -17 30 -11 3 -10 1 1 -7 13 -9 13 -11 -2 -11 -12 0 -18 8 -19 23 0 20 -1
20 -8 3 -7 -18 -8 -18 -29 4 -16 17 -19 27 -12 40 7 13 5 22 -7 31 -14 12 -16
12 -9 0 7 -10 3 -12 -15 -6 -30 9 -40 25 -33 48 3 9 0 17 -6 17 -6 0 -8 -4 -5
-10 3 -5 1 -10 -4 -10 -6 0 -11 10 -11 23 0 18 -2 19 -10 7 -9 -13 -10 -13
-11 0 -1 8 0 20 1 25 1 6 -2 6 -7 2 -4 -5 -8 -13 -8 -18 0 -20 -20 -8 -21 13
-1 12 -7 24 -13 26 -6 2 -11 8 -11 13 0 6 4 7 10 4 6 -3 7 1 4 10 -5 12 -9 13
-20 4 -9 -8 -14 -8 -14 -1 0 6 -9 9 -20 7 -11 -2 -23 1 -26 7 -4 7 -2 8 4 4 8
-4 11 3 9 24 -2 31 -12 39 -20 18 -3 -8 -6 -5 -6 6 -1 14 -4 16 -14 8 -8 -7
-18 -6 -31 4 -10 7 -23 11 -29 7 -6 -3 -7 -1 -3 6 4 6 12 8 18 5 8 -5 9 -1 5
10 -4 10 -7 20 -7 22 0 3 -6 2 -12 -2 -8 -5 -7 0 2 11 14 17 13 18 -2 12 -12
-4 -15 -2 -11 9 3 7 0 14 -6 14 -6 0 -11 -4 -11 -10 0 -5 -4 -10 -10 -10 -5 0
-10 7 -10 16 0 9 -5 12 -12 8 -8 -5 -7 0 2 11 11 14 12 19 3 22 -7 3 -13 9
-13 14 0 6 5 7 12 3 6 -4 8 -3 5 3 -9 14 -53 8 -49 -6 1 -7 -2 -10 -7 -6 -6 3
-7 13 -4 22 4 10 2 14 -5 9 -6 -3 -13 -2 -17 4 -3 5 1 10 10 10 10 0 13 5 9
12 -5 8 -1 9 12 4 15 -6 16 -5 7 5 -10 10 -15 9 -28 -1 -17 -14 -21 0 -4 17 7
7 3 10 -15 8 -15 -2 -24 1 -20 6 3 5 9 7 14 4 4 -3 7 2 6 11 -1 8 -8 19 -15
24 -11 6 -11 9 0 13 9 3 10 6 2 6 -19 2 -26 -19 -8 -25 13 -5 14 -9 4 -14 -7
-5 -20 -3 -30 3 -14 9 -15 13 -3 24 8 8 14 19 14 26 0 6 -6 3 -13 -7 -12 -16
-15 -16 -26 -3 -8 10 -9 17 -1 22 7 4 7 12 -1 26 -8 15 -7 25 2 37 8 9 9 14 5
10 -5 -4 -15 -3 -22 3 -10 8 -12 6 -9 -9 3 -16 -1 -19 -17 -14 -16 4 -19 2
-13 -9 5 -8 4 -10 0 -6 -12 10 -15 38 -4 31 5 -3 9 -1 9 4 0 6 -6 12 -14 15
-18 7 -15 45 4 58 13 9 13 10 -2 6 -9 -3 -23 2 -32 12 -21 23 -21 37 1 20 15
-13 15 -12 2 8 -11 19 -15 20 -22 8 -4 -8 -6 -19 -2 -24 9 -15 -16 -24 -28
-11 -9 10 -9 11 1 6 6 -4 12 -3 12 3 0 5 -6 12 -12 14 -10 4 -10 6 0 6 6 1 12
6 12 12 0 6 -7 8 -16 5 -14 -5 -15 -4 -5 8 10 11 8 15 -6 19 -17 4 -17 5 0 6
14 1 16 5 9 19 -5 9 -8 24 -7 32 2 9 -5 17 -16 17 -11 1 -19 -4 -19 -10 0 -7
-5 -4 -11 6 -6 10 -8 25 -5 33 3 8 2 12 -3 9 -5 -3 -12 -1 -16 5 -3 5 -1 10 4
10 6 0 11 5 11 11 0 5 -4 7 -10 4 -17 -11 -11 7 8 21 16 13 16 14 0 8 -19 -6
-25 10 -8 21 6 3 10 12 10 18 0 7 -4 6 -10 -3 -9 -13 -10 -13 -10 1 0 8 6 21
13 29 6 8 1 6 -12 -5 l-24 -20 12 22 c18 35 14 52 -11 45 -13 -3 -27 -10 -31
-16 -5 -6 -5 0 -2 13 5 15 3 21 -3 17 -6 -3 -13 -2 -16 3 -4 5 -2 13 4 16 8 5
7 11 -1 21 -9 11 -9 14 1 14 8 0 9 4 3 13 -11 14 -11 27 1 46 7 11 6 12 -5 6
-12 -8 -12 -6 0 8 7 9 9 17 4 17 -5 0 -10 7 -10 15 0 8 4 15 9 15 5 0 6 5 3
10 -4 6 -12 7 -18 3 -7 -3 -3 4 8 17 19 22 19 23 1 16 -16 -5 -17 -4 -6 9 10
12 10 15 -1 15 -12 0 -12 2 0 9 11 7 10 11 -5 20 -16 9 -16 10 -3 11 12 0 15
7 11 28 -2 15 -10 33 -16 41 -9 12 -7 13 8 8 14 -6 16 -4 9 5 -5 7 -8 23 -7
36 0 12 -3 22 -9 22 -5 0 -3 8 4 17 10 11 10 14 2 9 -16 -9 -17 6 -2 21 8 8 8
13 0 18 -7 4 -10 1 -9 -7 2 -8 -7 -13 -24 -14 -23 -1 -26 2 -18 17 7 13 5 22
-8 35 -16 17 -16 17 0 11 10 -3 20 -2 23 3 4 6 1 10 -6 10 -7 0 -9 3 -6 7 4 3
0 14 -9 24 -15 17 -15 18 5 14 16 -3 21 1 21 16 0 10 4 19 9 19 13 0 8 -33 -6
-45 -9 -8 -9 -14 2 -29 8 -11 15 -15 15 -10 0 6 -5 15 -12 22 -9 9 -9 12 0 12
6 0 16 -8 21 -17 6 -10 11 -13 11 -7 0 6 -3 14 -7 18 -4 3 -8 16 -10 28 -3 18
-1 19 14 7 16 -12 17 -12 8 1 -12 17 -13 40 -2 57 4 6 3 23 -3 37 -7 19 -6 26
2 26 9 0 9 3 0 12 -9 9 -7 15 6 25 9 8 11 11 3 7 -10 -5 -13 -3 -8 8 3 9 0 21
-6 28 -9 10 -9 11 1 6 7 -5 12 -1 13 11 4 65 3 91 -3 87 -11 -7 -3 23 11 40
12 14 12 16 0 11 -10 -4 -14 2 -14 19 0 20 4 23 27 20 27 -3 58 17 58 38 0 6
-9 0 -20 -13 -12 -15 -18 -17 -14 -8 3 10 1 20 -5 24 -6 3 -11 11 -11 18 0 6
6 2 14 -8 13 -18 14 -18 20 2 4 12 5 27 4 34 -2 8 4 14 12 13 9 -1 16 9 16 23
2 22 1 23 -12 6 -13 -16 -13 -15 -3 9 11 25 13 26 28 9 9 -9 13 -12 9 -6 -4 7
-5 15 -1 19 4 4 13 -4 20 -16 13 -23 13 -23 9 4 -3 15 -1 30 4 33 5 3 6 13 3
22 -5 12 -2 15 10 10 9 -3 23 1 32 9 8 9 15 12 15 7 0 -11 20 20 20 32 0 6 -5
3 -10 -5 -7 -11 -10 -11 -10 -2 0 8 -5 10 -12 6 -7 -4 -9 -3 -5 1 7 9 23 13
59 17 9 1 15 5 12 9 -2 4 -13 6 -24 4 -12 -2 -18 0 -16 4 8 13 61 5 58 -8 -1
-7 2 -10 7 -6 6 3 7 13 4 23 -6 15 -5 15 10 3 15 -12 17 -12 12 1 -3 8 1 21 9
28 13 10 17 9 22 -4 3 -9 11 -16 16 -16 6 0 5 6 -2 15 -6 8 -8 20 -4 26 8 14
-11 4 -38 -18 -12 -11 -18 -12 -24 -2 -5 8 -3 10 6 4 10 -6 12 -4 7 8 -4 12
-2 14 10 10 10 -4 14 -2 10 4 -4 6 4 9 21 7 14 -1 33 2 40 8 10 9 16 8 22 -1
5 -9 9 -10 14 -2 4 6 13 8 19 4 17 -10 67 -11 67 0 0 4 6 5 12 1 17 -11 48
-12 42 -2 -8 13 10 10 25 -4 11 -10 13 -10 7 0 -9 15 6 16 21 1 8 -8 13 -7 18
2 6 8 4 10 -5 4 -9 -5 -11 -4 -6 3 9 15 12 15 30 -4 9 -9 16 -11 16 -4 0 6 5
8 10 5 6 -3 10 -1 10 5 0 7 -7 9 -17 5 -15 -5 -16 -4 -5 6 9 10 15 10 24 1 7
-7 20 -12 29 -12 10 0 20 -6 23 -12 4 -7 4 3 1 22 -4 25 -2 31 5 20 9 -14 14
-7 11 13 -1 5 3 6 9 2 6 -3 8 -10 5 -15 -3 -4 2 -10 10 -14 8 -3 17 -1 20 3 5
9 65 33 65 27 0 -2 -18 -13 -39 -23 -26 -13 -45 -17 -55 -11 -19 11 -22 -7 -3
-19 18 -11 38 -13 31 -2 -8 13 10 11 25 -3 10 -11 11 -10 5 5 -5 13 -2 16 10
11 9 -3 13 -11 9 -17 -3 -6 -1 -7 6 -3 9 6 9 11 -1 23 -12 15 -11 15 9 3 12
-8 19 -19 16 -25 -3 -5 0 -4 8 3 16 14 33 16 24 2 -3 -5 -1 -10 4 -10 6 0 11
5 11 11 0 8 6 7 17 -2 11 -10 14 -10 9 -1 -4 6 -2 12 3 12 6 0 11 -6 11 -12 0
-9 4 -8 10 2 5 8 10 10 10 4 0 -15 49 -24 57 -11 3 5 1 7 -5 3 -6 -3 -13 -2
-16 3 -8 13 19 8 36 -7 8 -6 18 -9 21 -5 4 3 7 1 7 -6 0 -7 -7 -11 -15 -8 -8
4 -17 1 -21 -5 -5 -7 -2 -8 6 -3 10 6 12 4 7 -7 -3 -9 1 -24 9 -35 13 -16 13
-16 8 0 -5 13 -2 16 10 11 9 -3 16 -10 16 -15 0 -4 16 -7 35 -5 24 2 32 -1 25
-9 -6 -7 -3 -11 9 -12 14 -1 18 4 15 20 -4 19 -3 19 7 -3 17 -36 19 -53 8 -66
-7 -8 -4 -11 8 -10 10 0 17 -5 15 -12 -1 -8 2 -11 8 -7 6 3 8 11 5 16 -3 5 2
6 11 2 13 -5 15 -3 9 7 -5 8 -4 11 3 6 6 -4 9 -13 6 -21 -9 -24 5 -38 24 -23
15 12 16 11 3 -4 -7 -10 -10 -18 -7 -18 4 0 2 -9 -4 -19 -7 -14 -7 -22 2 -27
6 -4 9 -3 5 2 -3 5 1 18 10 29 13 19 14 18 7 -10 -4 -16 -11 -36 -17 -42 -6
-9 -4 -15 7 -19 9 -3 14 -9 11 -13 -2 -4 2 -8 10 -8 7 0 12 8 10 19 -4 20 3
22 25 8 13 -9 13 -10 0 -10 -10 0 -11 -3 -3 -8 6 -4 10 -22 9 -40 -1 -17 2
-32 7 -32 4 0 5 -5 2 -11 -4 -6 -8 -25 -9 -44 -1 -28 2 -32 19 -29 17 3 18 1
5 -9 -8 -7 -16 -20 -18 -31 -3 -15 1 -18 17 -13 12 3 24 1 27 -4 3 -5 11 -6
17 -3 7 4 9 4 5 -1 -4 -4 -2 -15 5 -24 10 -14 10 -14 -3 -4 -8 6 -19 13 -25
15 -5 1 -9 7 -7 11 1 5 -2 6 -8 2 -8 -5 -8 -11 1 -21 6 -7 15 -11 20 -8 9 5
13 -9 10 -35 -2 -7 2 -11 7 -7 5 3 9 -1 9 -9 0 -8 -4 -12 -9 -9 -4 3 -8 1 -8
-5 0 -5 6 -12 13 -14 10 -4 10 -6 0 -6 -7 -1 -13 -6 -13 -12 0 -5 4 -8 9 -5
11 7 9 -13 -2 -31 -6 -9 -2 -13 10 -14 16 0 16 -1 -2 -9 -12 -5 -14 -9 -6 -9
11 -1 10 -5 -5 -16 -16 -13 -16 -14 -1 -9 9 3 17 3 17 -1 0 -4 -8 -14 -17 -21
-17 -13 -17 -14 -1 -8 14 5 16 1 13 -17 -3 -13 1 -27 8 -32 8 -6 7 -7 -5 -3
-10 3 -20 1 -23 -5 -4 -5 -1 -8 6 -7 9 2 13 -11 14 -39 1 -23 -2 -40 -7 -37
-4 3 -8 -2 -8 -10 0 -8 8 -17 18 -19 14 -4 14 -5 -3 -6 -17 -1 -18 -3 -5 -11
10 -6 11 -10 3 -10 -7 0 -13 -5 -13 -11 0 -5 5 -7 10 -4 6 3 10 1 10 -4 0 -6
-6 -11 -12 -11 -9 0 -8 -4 2 -10 13 -9 13 -10 0 -10 -13 0 -13 -1 0 -10 13 -9
13 -10 0 -10 -13 0 -13 -1 0 -10 13 -8 8 -14 -11 -12 -9 1 -4 -36 6 -45 4 -5
5 -1 0 7 -7 13 -6 13 6 1 11 -10 11 -15 2 -18 -7 -3 -13 -9 -13 -14 0 -6 4 -8
8 -5 5 3 8 -7 7 -22 0 -15 -6 -27 -12 -27 -6 0 -14 -3 -17 -7 -3 -5 -3 -6 0
-4 3 3 21 -3 40 -13 21 -11 50 -17 74 -16 31 2 40 -1 40 -13 0 -8 3 -12 6 -9
4 3 15 2 26 -4 18 -10 19 -8 14 13 -3 12 -3 17 0 11 4 -10 11 -10 26 -2 15 8
19 8 13 -1 -8 -13 26 -10 36 3 3 5 9 1 12 -8 5 -10 3 -14 -5 -9 -7 5 -8 3 -3
-7 7 -11 5 -11 -10 1 -14 11 -17 11 -11 2 7 -11 4 -12 -12 -3 -26 14 -32 14
-32 1 0 -5 9 -10 20 -10 11 0 20 -5 20 -11 0 -7 -7 -8 -17 -4 -26 10 -83 13
-83 5 0 -13 26 -19 40 -10 8 5 22 4 34 -2 14 -8 22 -7 30 3 21 27 42 19 37
-13 0 -5 3 -8 9 -8 13 0 13 6 0 31 -6 10 -7 19 -3 19 10 0 43 -37 38 -42 -2
-2 5 -4 15 -5 17 -2 16 2 -8 22 -22 20 -24 24 -9 25 9 0 16 5 15 11 -2 6 8 13
22 15 18 3 21 2 10 -5 -8 -5 -19 -7 -25 -3 -5 3 -4 -1 3 -10 10 -13 10 -17 0
-20 -9 -3 -9 -6 0 -12 7 -4 12 -2 12 3 0 6 5 11 11 11 5 0 7 -5 3 -12 -5 -7
-3 -8 6 -3 10 6 10 10 -2 19 -14 10 -13 13 7 23 17 7 27 7 34 0 8 -8 11 -7 11
2 0 7 5 9 10 6 18 -11 0 -25 -26 -21 -21 4 -24 3 -14 -9 9 -11 17 -12 30 -5
13 7 20 6 23 -3 3 -6 4 3 2 21 -2 24 1 30 8 23 16 -16 18 -43 4 -61 -10 -13
-10 -13 4 -3 9 7 18 11 21 8 2 -3 5 2 5 10 0 8 -4 15 -8 15 -9 0 -6 27 5 37 4
4 6 3 4 -2 -3 -10 6 -16 20 -13 29 6 59 1 68 -11 9 -11 15 -11 30 -2 18 11 18
12 -2 6 -14 -4 -21 -1 -21 9 0 9 4 13 9 10 17 -11 118 -12 112 -2 -4 6 1 6 13
-1 14 -7 23 -7 31 1 8 8 9 5 5 -11 -3 -12 -1 -21 6 -21 6 0 10 5 8 12 -1 7 8
13 21 14 12 1 22 -4 22 -10 0 -8 2 -8 8 0 4 6 19 13 35 16 22 4 25 3 16 -9 -9
-11 -8 -12 5 -7 9 3 16 10 16 15 0 5 5 9 11 9 5 0 7 -4 4 -10 -3 -5 -1 -10 5
-10 6 0 8 -5 4 -12 -5 -7 -3 -8 5 -4 7 5 10 13 8 20 -5 12 121 15 141 2 7 -4
12 -2 12 6 0 9 3 9 10 -2 9 -13 10 -13 11 0 0 10 3 8 9 -5 5 -11 9 -15 9 -9 1
17 29 25 37 12 5 -7 2 -8 -6 -3 -9 6 -11 4 -5 -5 6 -10 11 -10 20 3 7 9 15 14
18 11 3 -3 16 0 29 7 20 11 21 10 11 -3 -18 -21 -4 -30 20 -13 15 11 24 12 34
3 7 -6 13 -6 13 -1 0 5 14 8 30 5 17 -2 36 1 43 7 10 8 19 6 35 -10 20 -18 22
-18 22 -2 0 15 2 15 16 -3 8 -10 13 -13 9 -6 -3 6 -1 12 5 12 6 0 8 4 5 10 -4
6 1 7 11 3 13 -5 15 -3 9 7 -5 8 -4 11 2 7 6 -4 14 0 17 9 5 12 2 15 -11 10
-15 -6 -16 -5 -5 6 10 10 17 8 35 -12 12 -13 15 -18 6 -12 -14 10 -18 9 -23
-4 -9 -24 -7 -28 9 -14 12 10 15 10 15 -1 1 -9 4 -8 11 4 6 9 15 15 21 11 7
-4 7 0 -1 13 -7 14 -7 23 1 31 16 16 19 44 6 60 -9 10 -8 16 3 23 8 5 9 9 3 9
-7 0 -15 7 -18 16 -5 13 -3 14 7 6 10 -8 13 -6 13 9 0 13 -5 18 -16 14 -9 -3
-7 1 5 11 20 16 19 16 -5 11 -24 -6 -24 -5 -5 9 20 15 29 64 12 64 -5 0 -3 8
4 17 10 11 10 14 2 9 -7 -4 -13 -2 -13 3 0 6 4 11 8 11 4 0 8 13 7 29 0 29 -1
29 -20 13 -18 -16 -19 -16 -7 0 8 10 11 26 7 38 -4 12 -2 20 5 20 6 0 9 -4 5
-9 -3 -5 -2 -12 3 -15 4 -2 8 6 8 20 0 14 -5 23 -11 20 -7 -2 -12 2 -12 10 0
8 7 14 16 14 14 0 14 2 1 9 -8 6 -18 7 -24 4 -5 -3 -6 -1 -2 6 4 6 12 8 18 5
6 -4 8 -2 4 4 -3 5 0 13 6 15 10 4 9 6 -1 6 -10 1 -11 4 -2 14 8 10 7 14 -3
14 -8 0 -13 -8 -11 -17 2 -9 -3 -17 -10 -17 -8 0 -11 5 -7 11 7 11 8 17 11 37
0 5 5 8 10 4 5 -3 13 0 17 6 4 8 3 9 -4 5 -7 -4 -12 -2 -12 3 0 6 5 11 12 11
6 0 9 2 6 5 -3 3 -16 1 -30 -4 -18 -7 -25 -6 -25 4 0 7 6 11 14 8 17 -7 29 25
14 40 -20 20 -12 31 9 12 18 -17 20 -17 14 -2 -3 9 -10 17 -16 17 -5 0 -6 6
-2 13 4 6 4 9 -1 5 -4 -4 -14 -3 -22 3 -7 6 -13 8 -13 4 0 -4 -9 3 -19 16 -14
17 -16 28 -9 37 7 8 7 12 -2 12 -10 0 -10 3 0 15 7 8 8 15 3 15 -8 0 -11 123
-3 155 1 6 1 12 0 15 -7 17 -6 139 1 134 15 -9 10 6 -7 23 -13 13 -13 17 -2
24 10 7 9 9 -4 9 -10 0 -18 5 -18 10 0 6 -5 10 -11 10 -13 0 -38 30 -39 45 0
6 5 3 10 -5 8 -13 10 -12 10 3 0 9 -4 17 -10 17 -5 0 -10 5 -10 11 0 5 4 8 8
5 5 -3 9 1 9 9 0 8 -4 12 -9 9 -4 -3 -8 0 -8 5 0 6 5 11 11 11 5 0 7 5 4 10
-4 6 -11 8 -16 5 -5 -4 -9 -1 -9 4 0 6 4 11 9 11 11 0 19 30 14 48 -3 6 -9 10
-14 7 -5 -4 -6 2 -2 12 6 16 5 17 -13 3 -18 -14 -18 -14 -1 6 9 11 14 24 11
27 -4 4 -2 13 4 20 9 10 8 14 -2 14 -9 0 -13 -9 -11 -23 1 -13 -1 -21 -6 -19
-4 3 -9 -1 -12 -7 -3 -7 -4 3 -3 22 1 30 -2 35 -21 32 -12 -2 -25 3 -29 9 -5
9 -2 10 9 6 9 -3 19 -1 23 5 4 6 3 8 -4 4 -6 -3 -14 3 -17 15 -5 14 -2 25 6
30 11 7 10 9 -3 9 -10 0 -18 5 -18 11 0 5 6 7 13 3 7 -5 7 -1 -2 10 -13 15
-13 19 0 27 10 6 11 9 1 9 -7 0 -11 4 -8 8 2 4 -4 9 -15 9 -11 1 -17 -2 -15
-6 3 -4 -1 -8 -9 -8 -8 0 -12 4 -9 9 3 4 0 8 -7 8 -7 0 -9 3 -6 6 3 4 2 15 -3
25 -7 12 -7 20 0 24 5 3 10 11 10 16 0 6 -6 7 -12 3 -10 -6 -10 -5 -1 7 7 9 9
20 3 29 -5 8 -5 19 1 26 6 8 2 10 -15 7 -13 -3 -27 0 -30 6 -4 5 -13 8 -21 4
-12 -4 -15 4 -15 37 0 30 -3 39 -12 34 -10 -6 -10 -4 0 8 10 13 10 18 1 24 -8
5 -10 3 -4 -7 6 -11 5 -12 -6 -1 -16 14 -33 16 -24 2 3 -5 4 -10 1 -10 -3 0
-10 8 -15 18 -7 14 -5 17 14 17 13 0 22 -2 20 -5 -2 -3 5 -6 16 -6 18 0 18 2
5 12 -18 13 -22 29 -4 18 7 -5 8 -3 3 6 -6 10 -11 9 -22 -5 -7 -11 -13 -13
-13 -7 0 7 -9 12 -19 12 -20 0 -20 3 -22 85 0 15 -2 16 -8 6 -6 -9 -11 -10
-15 -2 -5 8 -13 8 -28 0 -18 -9 -19 -8 -13 10 8 26 -3 27 -22 4 -13 -16 -13
-16 -3 5 6 12 8 27 5 32 -4 6 1 7 12 3 23 -8 15 1 -16 17 -22 11 -23 11 -17
-6 5 -16 4 -17 -6 -4 -7 8 -19 15 -27 15 -8 0 -15 10 -16 22 -1 12 2 20 7 17
4 -3 8 0 8 5 0 10 -22 16 -43 12 -5 -1 -6 3 -2 9 3 6 10 8 15 5 5 -3 12 0 16
7 4 7 4 10 -1 6 -4 -4 -15 -2 -23 5 -10 8 -13 8 -9 1 7 -12 -21 -29 -31 -19
-3 3 0 5 6 5 7 0 12 5 12 11 0 5 -4 7 -10 4 -5 -3 -10 0 -10 9 0 8 6 17 13 20
6 3 1 3 -13 0 -20 -5 -23 -4 -12 7 6 7 12 18 12 24 0 5 -5 3 -10 -5 -6 -9 -10
-11 -10 -3 0 7 -7 10 -15 7 -11 -5 -14 -1 -9 12 5 18 5 18 -9 2 -8 -10 -17
-14 -21 -10 -7 7 -11 8 -38 11 -9 1 -9 4 2 10 8 6 18 7 22 5 4 -3 8 0 8 5 0 6
-5 11 -11 11 -6 0 -9 8 -7 18 3 11 0 19 -8 19 -7 0 -11 -4 -8 -9 3 -4 -2 -8
-11 -8 -9 0 -14 4 -11 8 3 4 -7 8 -22 8 -22 -1 -26 3 -24 22 2 12 -2 22 -8 22
-6 0 -8 -5 -4 -12 5 -9 2 -9 -9 1 -20 16 -23 1 -4 -18 10 -11 8 -11 -10 0 -16
10 -19 16 -11 26 5 7 13 11 17 9 4 -3 13 -1 19 3 10 6 9 11 -3 21 -13 11 -15
10 -9 -6 6 -15 4 -17 -6 -7 -7 6 -19 9 -26 6 -8 -3 -14 0 -14 6 0 6 -5 11 -11
11 -5 0 -8 -4 -5 -9 4 -5 -1 -8 -10 -7 -8 1 -19 8 -24 15 -6 11 -9 11 -14 0
-3 -8 -4 -4 -2 8 3 16 0 20 -13 16 -12 -3 -11 -1 4 11 18 16 18 16 -14 10 -25
-5 -32 -4 -27 4 7 12 -5 16 -32 13 -10 -2 -12 5 -7 21 6 22 5 22 -7 2 -12 -19
-14 -19 -30 -3 -11 12 -13 19 -5 22 8 2 8 5 -1 11 -7 4 -12 2 -12 -3 0 -6 -5
-11 -11 -11 -5 0 -8 4 -4 9 3 5 1 13 -5 16 -8 5 -7 12 2 23 12 15 11 16 -4 3
-10 -7 -24 -11 -32 -8 -10 4 -13 1 -9 -8 3 -8 8 -13 12 -11 4 3 13 0 21 -6 13
-8 13 -9 0 -5 -17 5 -42 -17 -32 -29 4 -4 1 -4 -6 0 -9 6 -10 11 -3 20 14 16
4 26 -17 19 -15 -4 -15 -3 -2 6 13 9 13 11 0 11 -13 0 -13 1 0 10 11 8 9 9
-10 6 -14 -3 -29 -5 -33 -5 -5 -1 -5 -6 -1 -13 4 -7 3 -8 -5 -4 -6 4 -9 12 -6
17 11 16 -7 10 -22 -8 -8 -10 -12 -13 -9 -7 8 17 -19 25 -34 11 -10 -9 -11 -9
-6 1 4 7 1 12 -8 12 -9 0 -16 5 -16 11 0 5 -4 7 -10 4 -16 -10 -12 1 6 15 12
11 15 11 12 -1 -2 -8 3 -13 10 -12 6 2 12 -2 12 -9 0 -6 3 -8 6 -5 4 4 1 13
-6 22 -9 11 -9 15 -1 15 7 0 9 5 5 11 -3 6 -9 7 -13 3 -8 -12 -63 -15 -56 -4
4 6 -1 10 -9 10 -9 0 -16 -5 -16 -12 0 -9 -3 -9 -12 0 -7 7 -32 12 -56 12 -31
0 -41 3 -37 13 4 6 1 5 -7 -3 -13 -16 -52 -20 -64 -7 -12 12 -26 8 -18 -5 6
-10 4 -10 -7 -2 -8 6 -21 10 -30 9 -9 -2 -16 3 -16 11 0 7 4 11 9 8 4 -3 8 -2
9 3 0 4 2 16 4 26 2 9 -1 15 -6 11 -5 -3 -9 -1 -9 3 0 5 -34 9 -75 9 -53 1
-73 -2 -68 -10 4 -6 -1 -5 -10 3 -9 7 -24 11 -32 7 -8 -3 -15 0 -15 7 0 7 -7
3 -15 -7 -8 -11 -15 -15 -15 -8 0 8 -22 11 -68 10 -38 -1 -73 2 -79 5 -7 4
-16 -1 -22 -10 -6 -10 -11 -13 -11 -7 0 8 -32 12 -99 12 -55 0 -104 3 -110 6
-5 4 -14 -2 -20 -11 -6 -10 -11 -12 -11 -5 0 8 -19 12 -61 12 -45 0 -58 -3
-53 -12 6 -10 5 -10 -7 -2 -20 17 -282 17 -273 1 5 -8 2 -8 -7 1 -7 6 -28 12
-47 12 -24 0 -31 -4 -26 -12 6 -10 4 -10 -7 0 -7 6 -19 12 -27 12 -8 0 -10 -5
-6 -12 4 -7 -2 -5 -13 5 -20 17 -21 17 -27 0z m-91 -13 c-3 -5 -12 -10 -18
-10 -7 0 -6 4 3 10 19 12 23 12 15 0z m36 -13 c-10 -9 -11 -8 -5 6 3 10 9 15
12 12 3 -3 0 -11 -7 -18z m1261 5 c5 -5 2 -9 -7 -9 -8 0 -15 4 -15 9 0 5 -4 7
-9 3 -5 -3 -12 -1 -16 4 -7 12 35 5 47 -7z m-71 -15 c-10 -9 -11 -8 -5 6 3 10
9 15 12 12 3 -3 0 -11 -7 -18z m604 -169 c27 -12 31 -23 13 -34 -7 -4 -8 -3
-4 4 4 8 -3 16 -18 22 -14 5 -26 12 -26 15 0 7 6 6 35 -7z m-2618 -147 c0 -11
-5 -18 -9 -15 -4 3 -5 11 -1 19 7 21 12 19 10 -4z m-262 -221 c10 -11 16 -20
13 -20 -3 0 -13 9 -23 20 -10 11 -16 20 -13 20 3 0 13 -9 23 -20z m3543 -123
c9 -10 6 -13 -13 -13 -19 0 -22 3 -13 13 6 7 12 13 13 13 1 0 7 -6 13 -13z
m-3677 -30 c-6 -8 -7 -18 -3 -22 4 -5 -1 -5 -11 -2 -10 4 -16 3 -12 -2 3 -5 1
-12 -5 -16 -5 -3 -10 -3 -11 2 0 4 -2 16 -4 26 -2 12 1 17 9 14 7 -3 19 -1 27
4 20 12 23 11 10 -4z m-111 -177 c8 -5 11 -10 5 -10 -5 0 -17 5 -25 10 -8 5
-10 10 -5 10 6 0 17 -5 25 -10z m3961 -67 c13 -16 12 -17 -3 -4 -10 7 -18 15
-18 17 0 8 8 3 21 -13z m-4141 -273 c0 -5 -5 -10 -11 -10 -5 0 -7 5 -4 10 3 6
8 10 11 10 2 0 4 -4 4 -10z m4253 -1 c-6 -6 -10 -17 -9 -23 2 -6 1 -8 -1 -3
-3 4 -10 4 -16 0 -7 -3 -3 3 7 15 11 12 22 22 25 22 3 0 0 -5 -6 -11z m57 -93
c0 -3 -4 -8 -10 -11 -5 -3 -10 -1 -10 4 0 6 5 11 10 11 6 0 10 -2 10 -4z
m-2186 -88 c-7 -11 -42 -10 -49 1 -3 5 0 13 6 17 8 4 9 3 5 -4 -5 -8 0 -12 13
-12 15 0 19 5 15 18 -5 14 -4 14 4 2 6 -8 8 -18 6 -22z m-97 15 c-4 -3 1 -12
11 -20 15 -13 15 -13 -5 -3 -13 6 -24 8 -24 5 -1 -3 -2 -9 -3 -14 0 -5 -4 -12
-8 -16 -3 -4 -6 0 -4 8 2 16 25 47 34 47 3 0 2 -3 -1 -7z m143 -13 c13 -11 19
-20 13 -20 -5 0 -18 9 -28 20 -10 11 -16 20 -13 20 3 0 15 -9 28 -20z m110 16
c0 -2 -7 -6 -15 -10 -8 -3 -15 -1 -15 4 0 6 7 10 15 10 8 0 15 -2 15 -4z m79
-29 c0 -9 -2 -8 -6 1 -2 6 -10 9 -15 6 -7 -4 -8 -2 -4 5 9 13 26 5 25 -12z
m-418 -20 c-10 -9 -11 -8 -5 6 3 10 9 15 12 12 3 -3 0 -11 -7 -18z m456 17
c-3 -3 -12 -4 -19 -1 -8 3 -5 6 6 6 11 1 17 -2 13 -5z m180 -60 c-1 -19 3 -28
16 -30 11 -1 22 -5 25 -8 9 -10 -31 -1 -54 12 -12 6 -25 8 -29 4 -5 -4 -5 -2
-1 5 4 7 13 10 22 6 8 -3 14 -2 13 3 -2 15 1 34 6 34 2 0 3 -12 2 -26z m28 7
c3 -5 2 -12 -3 -15 -5 -3 -9 1 -9 9 0 17 3 19 12 6z m-955 -115 c0 -3 -4 -8
-10 -11 -5 -3 -10 -1 -10 4 0 6 5 11 10 11 6 0 10 -2 10 -4z m-45 -36 c3 -5 1
-10 -4 -10 -6 0 -11 5 -11 10 0 6 2 10 4 10 3 0 8 -4 11 -10z m-1728 -32 c-3
-7 -5 -2 -5 12 0 14 2 19 5 13 2 -7 2 -19 0 -25z m2906 -82 c4 -10 1 -13 -8
-9 -8 3 -12 9 -9 14 7 12 11 11 17 -5z m-2937 -11 c-3 -23 -12 -26 -13 -5 -1
11 2 20 7 20 4 0 7 -7 6 -15z m3039 -195 c3 -5 1 -10 -4 -10 -6 0 -11 5 -11
10 0 6 2 10 4 10 3 0 8 -4 11 -10z m1509 -26 c3 -8 10 -13 15 -9 5 3 13 0 17
-6 4 -8 3 -9 -4 -5 -16 10 -14 -5 3 -28 8 -11 15 -25 15 -30 0 -6 -13 8 -28
32 -16 23 -31 40 -34 37 -2 -3 -5 2 -5 10 0 20 13 19 21 -1z m-2953 -183 c-7
-5 -11 -13 -8 -17 3 -5 -6 -10 -20 -11 -17 -1 -21 2 -13 7 7 4 10 12 6 18 -3
5 2 9 12 8 10 0 16 5 14 14 -3 12 -1 13 10 2 11 -11 10 -14 -1 -21z m-1611
-111 c0 -5 -5 -10 -11 -10 -5 0 -7 5 -4 10 3 6 8 10 11 10 2 0 4 -4 4 -10z
m4630 -44 c0 -2 -8 -10 -17 -17 -16 -13 -17 -12 -4 4 13 16 21 21 21 13z
m-4657 -69 c7 3 8 2 4 -2 -14 -16 -36 -14 -29 3 4 10 7 12 10 4 2 -7 9 -9 15
-5z m1623 -8 c1 -7 3 -18 5 -24 1 -5 -3 -21 -9 -35 -6 -14 -11 -19 -11 -11 -1
8 -9 20 -18 28 -16 13 -16 13 4 4 14 -7 24 -8 28 -1 3 5 0 10 -8 10 -8 0 -18
7 -21 16 -6 15 -4 15 10 3 16 -13 16 -12 5 10 -10 19 -10 22 0 19 7 -2 13 -11
15 -19z m3030 -25 c1 -9 0 -13 -4 -10 -3 4 -7 14 -8 22 -1 9 0 13 4 10 3 -4 7
-14 8 -22z m-4616 -110 c0 -8 -19 -13 -24 -6 -3 5 1 9 9 9 8 0 15 -2 15 -3z
m-59 -57 c-10 -9 -11 -8 -5 6 3 10 9 15 12 12 3 -3 0 -11 -7 -18z m40 -14 c13
-16 12 -17 -3 -4 -10 7 -18 15 -18 17 0 8 8 3 21 -13z m4627 -10 c-9 -10 -13
-25 -10 -33 5 -16 3 -15 -18 15 -8 11 -11 17 -6 13 5 -4 15 -1 23 7 20 21 29
19 11 -2z m-4652 -17 c0 -14 -3 -23 -7 -20 -4 2 -10 -2 -13 -8 -2 -7 -4 -4 -3
7 2 18 14 45 21 45 1 0 2 -11 2 -24z m3404 -67 c0 8 3 12 6 8 10 -10 -6 -26
-21 -21 -8 4 -12 11 -9 16 4 6 10 5 15 -3 7 -12 9 -12 9 0z m-3396 -31 c-4 -6
-10 -5 -15 3 -14 22 -10 33 6 19 8 -7 12 -17 9 -22z m36 -33 c-7 -8 -17 -15
-23 -15 -6 0 -2 7 9 15 25 19 30 19 14 0z m4 -63 c3 -5 -1 -9 -9 -9 -8 0 -12
4 -9 9 3 4 7 8 9 8 2 0 6 -4 9 -8z m1669 -49 c-3 -7 -6 -13 -8 -13 -2 0 -5 6
-8 13 -3 8 1 14 8 14 7 0 11 -6 8 -14z m68 -206 c-10 -9 -11 -8 -5 6 3 10 9
15 12 12 3 -3 0 -11 -7 -18z m85 -142 c1 -8 -2 -13 -7 -9 -5 3 -9 12 -9 21 0
19 13 9 16 -12z m-1788 -50 c-3 -3 -9 2 -12 12 -6 14 -5 15 5 6 7 -7 10 -15 7
-18z m1859 -77 c-3 -8 -6 -5 -6 6 -1 11 2 17 5 13 3 -3 4 -12 1 -19z m-1747
-232 c0 -2 -7 -7 -16 -10 -8 -3 -12 -2 -9 4 6 10 25 14 25 6z m37 -121 c4 -4
2 -5 -4 -1 -7 4 -13 2 -13 -3 0 -6 -4 -11 -8 -11 -5 0 -9 6 -9 14 0 15 21 16
34 1z m3 -19 c0 -2 -8 -10 -17 -17 -16 -13 -17 -12 -4 4 13 16 21 21 21 13z
m130 -276 c0 -5 -5 -10 -11 -10 -5 0 -7 5 -4 10 3 6 8 10 11 10 2 0 4 -4 4
-10z m103 -163 c-4 -7 1 -8 12 -3 15 5 16 4 6 -8 -9 -11 -9 -15 0 -18 7 -2 9
-10 5 -17 -6 -9 -12 -9 -26 4 -21 19 -23 52 -3 52 6 0 9 -5 6 -10z m2375 -70
c8 -10 6 -13 -11 -14 -12 0 -16 1 -9 4 6 3 10 9 6 14 -8 14 2 11 14 -4z m279
-233 c-3 -3 -12 -4 -19 -1 -8 3 -5 6 6 6 11 1 17 -2 13 -5z m240 -220 c-3 -3
-12 -4 -19 -1 -8 3 -5 6 6 6 11 1 17 -2 13 -5z m27 -3 c3 -5 -1 -11 -9 -14 -9
-4 -12 -1 -8 9 6 16 10 17 17 5z m-2258 -286 c-1 -8 -5 -17 -8 -21 -5 -4 -4
16 1 34 3 9 9 -1 7 -13z m2521 -7 c-3 -8 -6 -5 -6 6 -1 11 2 17 5 13 3 -3 4
-12 1 -19z m203 -218 c0 -5 -2 -10 -4 -10 -3 0 -8 5 -11 10 -3 6 -1 10 4 10 6
0 11 -4 11 -10z m-2376 -58 c3 -5 -1 -9 -9 -9 -8 0 -12 4 -9 9 3 4 7 8 9 8 2
0 6 -4 9 -8z m76 -82 c0 -5 -2 -10 -4 -10 -3 0 -8 5 -11 10 -3 6 -1 10 4 10 6
0 11 -4 11 -10z m80 -94 c-7 -7 -13 -7 -20 0 -6 6 -3 10 10 10 13 0 16 -4 10
-10z m2539 -132 c-6 -8 -14 -14 -16 -14 -3 0 1 8 8 17 12 15 12 16 -3 10 -10
-3 -20 -2 -22 2 -9 15 6 21 26 10 15 -8 17 -13 7 -25z m-2198 -157 c-10 -9
-11 -8 -5 6 3 10 9 15 12 12 3 -3 0 -11 -7 -18z m206 -149 c-3 -8 -6 -5 -6 6
-1 11 2 17 5 13 3 -3 4 -12 1 -19z m70 -80 c-3 -8 -6 -5 -6 6 -1 11 2 17 5 13
3 -3 4 -12 1 -19z m73 -66 c0 -5 -7 -9 -15 -9 -8 0 -15 4 -15 9 0 4 7 8 15 8
8 0 15 -4 15 -8z m15 -22 c-3 -5 -1 -10 6 -10 7 0 10 -3 6 -6 -9 -9 -28 6 -22
17 4 5 8 9 11 9 3 0 2 -4 -1 -10z m58 -47 c-4 -10 -2 -14 4 -10 5 3 10 0 10
-6 0 -7 -10 -13 -22 -13 -25 0 -27 22 -4 37 19 12 19 12 12 -8z m71 -85 c-6
-19 -5 -21 8 -11 12 10 15 10 15 -1 0 -8 -7 -13 -16 -11 -9 1 -16 7 -15 13 2
25 4 32 10 32 3 0 2 -10 -2 -22z m166 -192 c0 -3 -4 -8 -10 -11 -5 -3 -10 -1
-10 4 0 6 5 11 10 11 6 0 10 -2 10 -4z m231 -324 c-7 -2 -18 1 -23 6 -8 8 -4
9 13 5 13 -4 18 -8 10 -11z m1776 -98 c-3 -3 -12 -4 -19 -1 -8 3 -5 6 6 6 11
1 17 -2 13 -5z m10 -29 c0 -8 -3 -13 -5 -10 -3 3 -10 0 -17 -5 -8 -7 -12 -5
-12 5 0 8 4 12 8 9 4 -2 10 0 14 6 9 14 12 13 12 -5z m-1700 -61 c-3 -3 -12
-4 -19 -1 -8 3 -5 6 6 6 11 1 17 -2 13 -5z m-1992 -66 c6 -4 2 -8 -7 -8 -10 0
-18 7 -18 17 0 9 3 12 8 7 4 -5 12 -12 17 -16z m35 -18 c0 -5 -4 -10 -10 -10
-5 0 -10 5 -10 10 0 6 5 10 10 10 6 0 10 -4 10 -10z m35 -8 c-3 -3 -11 0 -18
7 -9 10 -8 11 6 5 10 -3 15 -9 12 -12z m3630 8 c3 -5 2 -10 -4 -10 -5 0 -13 5
-16 10 -3 6 -2 10 4 10 5 0 13 -4 16 -10z m-3724 -23 c-10 -9 -11 -8 -5 6 3
10 9 15 12 12 3 -3 0 -11 -7 -18z m-729 -25 c-7 -2 -9 -9 -6 -14 5 -7 2 -8 -6
-3 -8 5 -18 1 -27 -10 -7 -11 -13 -14 -13 -9 0 6 6 16 13 23 10 11 8 12 -10 7
-12 -4 -24 -3 -27 2 -3 5 10 8 29 6 20 -1 33 2 30 7 -4 5 2 6 11 2 11 -4 13
-8 6 -11z m-77 -19 c18 -13 17 -13 -14 -8 -22 4 -37 1 -42 -7 -4 -7 -11 -9
-14 -6 -10 9 16 35 35 35 8 0 24 -6 35 -14z m146 4 c-6 -8 -7 -18 -3 -22 4 -5
1 -5 -6 -1 -10 6 -10 11 -1 22 6 8 14 14 16 14 3 0 0 -6 -6 -13z m154 3 c3 -5
1 -10 -4 -10 -6 0 -11 5 -11 10 0 6 2 10 4 10 3 0 8 -4 11 -10z m-389 -35 c1
-8 -2 -13 -7 -9 -5 3 -6 10 -3 16 5 7 1 9 -9 5 -17 -6 -23 4 -10 17 8 8 26 -9
29 -29z m199 15 c-3 -5 -12 -10 -18 -10 -7 0 -6 4 3 10 19 12 23 12 15 0z
m-135 -20 c0 -5 -2 -10 -4 -10 -3 0 -8 5 -11 10 -3 6 -1 10 4 10 6 0 11 -4 11
-10z m4555 -279 c3 -5 2 -12 -3 -15 -5 -3 -9 1 -9 9 0 17 3 19 12 6z m-58
-438 c-4 -3 3 -18 15 -32 19 -21 20 -23 3 -11 -11 8 -23 19 -27 25 -7 9 -1 25
9 25 4 0 3 -3 0 -7z m-3089 -48 c-3 -3 -9 2 -12 12 -6 14 -5 15 5 6 7 -7 10
-15 7 -18z m1465 -75 c-10 -11 -19 -20 -21 -20 -1 0 2 9 8 20 6 11 15 20 20
20 6 0 2 -9 -7 -20z m-27 -190 c0 -12 -4 -16 -9 -11 -5 5 -6 14 -3 20 10 15
12 14 12 -9z m-1373 -50 c-7 -27 -13 -25 -11 4 1 14 5 23 9 20 4 -2 5 -13 2
-24z m2972 -19 c3 -5 2 -12 -3 -15 -5 -3 -9 1 -9 9 0 17 3 19 12 6z m-1718
-67 c-3 -3 -12 -4 -19 -1 -8 3 -5 6 6 6 11 1 17 -2 13 -5z m-1077 -160 c0 -2
-7 -4 -15 -4 -8 0 -15 4 -15 10 0 5 7 7 15 4 8 -4 15 -8 15 -10z m135 -74 c3
-5 1 -10 -4 -10 -6 0 -11 5 -11 10 0 6 2 10 4 10 3 0 8 -4 11 -10z m610 -18
c-3 -3 -11 0 -18 7 -9 10 -8 11 6 5 10 -3 15 -9 12 -12z m-524 -28 c8 -10 9
-15 2 -11 -6 4 -14 1 -16 -5 -3 -7 -6 -2 -6 12 -1 15 -4 20 -9 14 -8 -13 -72
-14 -72 -2 0 5 5 9 10 9 6 1 14 2 19 3 5 0 13 4 16 8 9 9 37 -5 56 -28z m2419
-108 c0 -2 -7 -7 -16 -10 -8 -3 -12 -2 -9 4 6 10 25 14 25 6z m5 -45 c3 -5 0
-13 -6 -17 -7 -4 -9 -3 -5 4 3 5 0 13 -6 15 -9 4 -10 6 -1 6 6 1 14 -3 18 -8z
m-4300 -61 c-3 -5 -12 -10 -18 -10 -7 0 -6 4 3 10 19 12 23 12 15 0z m4135
-229 c0 -5 -7 -12 -16 -15 -14 -5 -15 -4 -4 9 14 17 20 19 20 6z m-4080 -25
c0 -2 -7 -7 -16 -10 -8 -3 -12 -2 -9 4 6 10 25 14 25 6z m3925 -166 c-3 -5
-12 -10 -18 -10 -7 0 -6 4 3 10 19 12 23 12 15 0z m-3865 -20 c0 -11 22 -9 31
3 3 5 9 1 13 -9 4 -10 4 -15 0 -11 -4 4 -13 -1 -21 -11 -12 -16 -13 -16 -6 2
4 12 3 17 -4 13 -6 -4 -16 0 -23 8 -9 10 -9 15 -1 15 6 0 11 -4 11 -10z m3815
-80 c3 -5 1 -10 -4 -10 -6 0 -11 5 -11 10 0 6 2 10 4 10 3 0 8 -4 11 -10z
m-80 -80 c3 -5 1 -10 -4 -10 -6 0 -11 5 -11 10 0 6 2 10 4 10 3 0 8 -4 11 -10z
m-3555 -120 c0 -5 -5 -10 -11 -10 -5 0 -7 5 -4 10 3 6 8 10 11 10 2 0 4 -4 4
-10z m3420 -55 c0 -12 -19 -12 -23 0 -4 9 -1 12 9 8 7 -3 14 -7 14 -8z m-55
-15 c3 -6 -1 -7 -9 -4 -18 7 -21 14 -7 14 6 0 13 -4 16 -10z m-70 -30 c-3 -5
3 -10 14 -10 23 0 28 -15 9 -26 -7 -5 -8 -3 -3 6 5 9 2 10 -13 6 -16 -5 -20
-3 -17 11 5 24 4 23 11 23 3 0 2 -4 -1 -10z m-3099 -141 c4 -8 9 -8 17 0 6 6
16 11 22 11 12 -1 -24 -23 -42 -26 -6 -1 -14 4 -17 12 -6 16 10 19 20 3z
m2681 -138 c0 -11 -5 -18 -9 -15 -4 3 -5 11 -1 19 7 21 12 19 10 -4z m-2512
-13 c-9 -6 -19 -7 -22 -4 -4 3 -1 6 6 6 7 0 9 4 6 10 -4 6 1 7 11 3 15 -6 15
-7 -1 -15z m109 -29 c3 -3 -4 -5 -14 -6 -11 -1 -22 2 -24 6 -5 8 30 8 38 0z
m-26 -33 c-7 -8 -15 -12 -17 -11 -5 6 10 25 20 25 5 0 4 -6 -3 -14z m56 -13
c4 -11 1 -11 -14 -3 -24 13 -25 17 -5 17 8 0 16 -6 19 -14z m113 -28 c0 -8 -4
-12 -9 -9 -5 3 -6 10 -3 15 9 13 12 11 12 -6z m1703 -85 c0 -5 -2 -10 -4 -10
-3 0 -8 5 -11 10 -3 6 -1 10 4 10 6 0 11 -4 11 -10z m-546 -90 c-6 -6 -10 -3
-10 10 0 13 4 16 10 10 7 -7 7 -13 0 -20z m-724 10 c0 -5 -5 -10 -11 -10 -5 0
-7 5 -4 10 3 6 8 10 11 10 2 0 4 -4 4 -10z"/>
<path d="M3430 6403 c0 -6 8 -17 18 -24 16 -13 16 -13 2 6 -8 11 -16 22 -17
24 -2 2 -3 0 -3 -6z"/>
<path d="M5987 10564 c-3 -3 -3 -13 0 -22 4 -10 2 -13 -5 -8 -6 3 -13 2 -16
-3 -5 -8 15 -8 34 -1 3 1 10 2 15 1 6 -1 2 5 -7 12 -10 8 -15 17 -11 20 3 4 4
7 1 7 -2 0 -7 -3 -11 -6z"/>
<path d="M4561 10541 c-8 -5 -9 -11 -3 -15 5 -3 12 1 16 9 6 17 6 18 -13 6z"/>
<path d="M6300 10481 c0 -5 7 -11 14 -14 10 -4 13 -1 9 9 -6 15 -23 19 -23 5z"/>
<path d="M3965 10329 c-10 -15 3 -25 16 -12 7 7 7 13 1 17 -6 3 -14 1 -17 -5z"/>
<path d="M3790 10220 c0 -5 5 -10 10 -10 6 0 10 5 10 10 0 6 -4 10 -10 10 -5
0 -10 -4 -10 -10z"/>
<path d="M6776 10221 c-4 -5 3 -7 14 -4 23 6 26 13 6 13 -8 0 -17 -4 -20 -9z"/>
<path d="M3730 10179 c0 -5 -5 -7 -12 -3 -7 4 -8 3 -4 -5 6 -9 11 -9 22 0 17
14 18 19 4 19 -5 0 -10 -5 -10 -11z"/>
<path d="M3529 9967 c-8 -7 -12 -11 -10 -10 2 2 10 -2 16 -7 9 -8 14 -6 18 4
8 21 -7 28 -24 13z"/>
<path d="M7260 9679 c0 -5 5 -7 10 -4 6 3 10 8 10 11 0 2 -4 4 -10 4 -5 0 -10
-5 -10 -11z"/>
<path d="M3255 9620 c3 -5 8 -10 11 -10 2 0 4 5 4 10 0 6 -5 10 -11 10 -5 0
-7 -4 -4 -10z"/>
<path d="M7350 9519 c0 -5 5 -7 10 -4 6 3 10 8 10 11 0 2 -4 4 -10 4 -5 0 -10
-5 -10 -11z"/>
<path d="M7410 9399 c0 -5 5 -7 10 -4 6 3 10 8 10 11 0 2 -4 4 -10 4 -5 0 -10
-5 -10 -11z"/>
<path d="M3149 9285 c-1 -3 -2 -10 -3 -17 0 -6 -7 -13 -15 -16 -8 -3 -11 0 -7
6 7 11 -20 10 -29 -1 -3 -4 -2 -5 2 -2 3 3 12 0 20 -7 16 -13 35 1 39 27 2 13
-4 22 -7 10z"/>
<path d="M7516 9114 c-17 -16 -12 -39 5 -28 5 3 7 10 4 15 -3 5 0 7 7 6 7 -2
10 -2 5 0 -4 3 -5 9 -1 14 8 14 -3 10 -20 -7z"/>
<path d="M5659 9073 c-13 -16 -12 -17 4 -4 9 7 17 15 17 17 0 8 -8 3 -21 -13z"/>
<path d="M7530 9081 c0 -6 5 -13 10 -16 6 -3 10 1 10 9 0 9 -4 16 -10 16 -5 0
-10 -4 -10 -9z"/>
<path d="M4875 8979 c-4 -6 -5 -12 -2 -15 2 -3 7 2 10 11 7 17 1 20 -8 4z"/>
<path d="M5790 8979 c0 -5 5 -7 10 -4 6 3 10 8 10 11 0 2 -4 4 -10 4 -5 0 -10
-5 -10 -11z"/>
<path d="M5826 8978 c3 -5 10 -6 15 -3 13 9 11 12 -6 12 -8 0 -12 -4 -9 -9z"/>
<path d="M5891 8914 c0 -11 3 -14 6 -6 3 7 2 16 -1 19 -3 4 -6 -2 -5 -13z"/>
<path d="M5910 8900 c0 -5 5 -10 11 -10 5 0 7 5 4 10 -3 6 -8 10 -11 10 -2 0
-4 -4 -4 -10z"/>
<path d="M3003 8875 c-7 -8 -9 -16 -4 -19 5 -3 12 1 15 10 8 22 4 25 -11 9z"/>
<path d="M2990 8660 c0 -5 5 -10 11 -10 5 0 7 5 4 10 -3 6 -8 10 -11 10 -2 0
-4 -4 -4 -10z"/>
<path d="M7570 8640 c-9 -6 -10 -10 -3 -10 6 0 15 5 18 10 8 12 4 12 -15 0z"/>
<path d="M2990 8599 c0 -5 5 -7 10 -4 6 3 10 8 10 11 0 2 -4 4 -10 4 -5 0 -10
-5 -10 -11z"/>
<path d="M2994 8435 c-1 -14 2 -25 6 -25 16 0 19 17 7 34 -11 14 -12 13 -13
-9z"/>
<path d="M2956 8358 c3 -5 10 -6 15 -3 13 9 11 12 -6 12 -8 0 -12 -4 -9 -9z"/>
<path d="M4590 8260 c0 -5 5 -10 10 -10 6 0 10 5 10 10 0 6 -4 10 -10 10 -5 0
-10 -4 -10 -10z"/>
<path d="M6066 8247 c3 -10 9 -15 12 -12 3 3 0 11 -7 18 -10 9 -11 8 -5 -6z"/>
<path d="M6075 7890 c-5 -9 -4 -11 3 -6 11 6 17 -6 13 -27 -1 -4 6 -10 14 -13
8 -4 15 -10 15 -16 0 -5 -6 -6 -12 -2 -7 4 -9 3 -5 -1 15 -17 36 -14 30 3 -5
14 -2 13 18 -3 15 -13 19 -14 11 -3 -11 13 -11 18 0 24 19 12 39 14 32 3 -3
-5 -10 -7 -15 -4 -5 4 -9 2 -9 -2 0 -5 10 -14 23 -22 20 -13 21 -13 9 2 -8 10
-9 17 -3 21 23 15 -2 31 -47 31 -29 0 -51 5 -58 14 -9 11 -12 12 -19 1z m84
-36 c-6 -7 -18 -11 -27 -9 -9 2 -21 4 -25 4 -5 1 -6 5 -3 10 3 5 19 8 35 7 21
0 27 -4 20 -12z"/>
<path d="M6609 7867 c6 -6 18 -12 27 -13 12 -2 14 0 5 9 -6 6 -18 12 -27 13
-12 2 -14 0 -5 -9z"/>
<path d="M6580 7860 c0 -5 5 -10 11 -10 5 0 8 -4 5 -8 -3 -5 1 -9 9 -9 13 0
12 4 -2 19 -18 21 -23 22 -23 8z"/>
<path d="M6735 7861 c-3 -5 -2 -12 3 -15 5 -3 9 1 9 9 0 17 -3 19 -12 6z"/>
<path d="M6466 7818 c3 -5 10 -6 15 -3 13 9 11 12 -6 12 -8 0 -12 -4 -9 -9z"/>
<path d="M3003 7703 c4 -3 1 -13 -6 -22 -11 -14 -10 -14 5 -2 16 12 16 31 1
31 -4 0 -3 -3 0 -7z"/>
<path d="M4756 7553 c-6 -14 -5 -15 5 -6 7 7 10 15 7 18 -3 3 -9 -2 -12 -12z"/>
<path d="M3035 7270 c-3 -5 -1 -10 4 -10 6 0 11 5 11 10 0 6 -2 10 -4 10 -3 0
-8 -4 -11 -10z"/>
<path d="M5193 6955 c0 -8 4 -12 9 -9 5 3 6 10 3 15 -9 13 -12 11 -12 -6z"/>
<path d="M5194 6916 c1 -8 5 -18 8 -22 4 -3 5 1 4 10 -1 8 -5 18 -8 22 -4 3
-5 -1 -4 -10z"/>
<path d="M3253 6647 c0 -8 6 -14 14 -14 9 0 10 4 2 14 -6 7 -12 13 -14 13 -1
0 -2 -6 -2 -13z"/>
<path d="M3306 6538 c3 -5 10 -6 15 -3 13 9 11 12 -6 12 -8 0 -12 -4 -9 -9z"/>
<path d="M3355 6500 c-4 -6 -1 -9 7 -8 7 2 12 -2 11 -8 -1 -6 5 -11 13 -11 11
0 11 4 -3 19 -19 21 -20 21 -28 8z"/>
<path d="M5670 6455 c0 -8 4 -15 10 -15 5 0 7 7 4 15 -4 8 -8 15 -10 15 -2 0
-4 -7 -4 -15z"/>
<path d="M5734 6442 c3 -5 0 -12 -6 -15 -8 -2 -2 -10 14 -17 15 -7 25 -17 22
-21 -3 -5 2 -6 10 -3 9 3 16 11 16 17 0 6 -3 7 -6 4 -9 -9 -46 12 -39 23 3 5
0 12 -6 16 -7 4 -9 3 -5 -4z"/>
<path d="M3460 6319 c0 -5 5 -7 10 -4 6 3 10 8 10 11 0 2 -4 4 -10 4 -5 0 -10
-5 -10 -11z"/>
<path d="M5840 6316 c0 -2 7 -9 15 -16 9 -7 15 -8 15 -2 0 5 -7 12 -15 16 -8
3 -15 4 -15 2z"/>
<path d="M3570 6119 c0 -5 5 -7 10 -4 6 3 10 8 10 11 0 2 -4 4 -10 4 -5 0 -10
-5 -10 -11z"/>
<path d="M6139 6113 c-13 -16 -12 -17 4 -4 9 7 17 15 17 17 0 8 -8 3 -21 -13z"/>
<path d="M6115 6080 c3 -5 8 -10 11 -10 2 0 4 5 4 10 0 6 -5 10 -11 10 -5 0
-7 -4 -4 -10z"/>
<path d="M3635 6050 c3 -5 8 -10 11 -10 2 0 4 5 4 10 0 6 -5 10 -11 10 -5 0
-7 -4 -4 -10z"/>
<path d="M6230 6004 c0 -1 13 -12 28 -23 22 -15 29 -17 29 -6 0 8 -3 14 -6 13
-19 -2 -32 3 -27 10 3 5 -1 9 -9 9 -8 0 -15 -2 -15 -3z"/>
<path d="M6492 5761 c-11 -7 -11 -9 0 -14 9 -3 15 1 15 9 0 8 -1 14 -1 14 -1
0 -7 -4 -14 -9z"/>
<path d="M6540 5706 c0 -2 8 -10 18 -17 15 -13 16 -12 3 4 -13 16 -21 21 -21
13z"/>
<path d="M4257 5433 c-11 -11 -8 -20 7 -20 8 0 12 6 9 14 -6 15 -7 15 -16 6z"/>
<path d="M6867 5359 c7 -7 15 -10 18 -7 3 3 -2 9 -12 12 -14 6 -15 5 -6 -5z"/>
<path d="M6925 5339 c-4 -6 -4 -13 -1 -16 3 -4 6 -1 6 6 0 7 5 9 12 5 7 -4 8
-3 4 4 -9 15 -13 15 -21 1z"/>
<path d="M4399 5328 c-7 -25 -5 -38 8 -38 12 0 13 3 4 13 -6 8 -8 17 -4 20 3
4 3 7 0 7 -4 0 -7 -1 -8 -2z"/>
<path d="M6946 5291 c-7 -10 0 -15 17 -12 4 1 5 -11 3 -26 -5 -25 -4 -26 12
-10 15 16 15 18 -5 38 -13 14 -23 17 -27 10z"/>
<path d="M4450 5279 c0 -9 7 -22 15 -29 12 -10 13 -16 3 -28 -10 -13 -10 -14
0 -8 7 4 15 1 18 -9 6 -13 8 -14 15 -3 5 7 9 8 9 2 0 -6 7 -11 16 -11 12 0 8
6 -11 20 -15 11 -36 34 -46 51 -12 19 -19 25 -19 15z"/>
<path d="M7086 5101 c-3 -4 0 -16 7 -25 11 -14 12 -13 13 9 2 24 -10 34 -20
16z"/>
<path d="M7260 4820 c0 -6 7 -13 15 -16 8 -4 13 -10 10 -14 -5 -8 20 -32 45
-44 8 -4 4 2 -9 13 -21 19 -20 26 2 22 5 -1 6 3 2 9 -3 6 -10 8 -14 6 -4 -3
-18 4 -29 15 -12 11 -22 15 -22 9z"/>
<path d="M7296 4818 c3 -5 10 -6 15 -3 13 9 11 12 -6 12 -8 0 -12 -4 -9 -9z"/>
<path d="M5100 4701 c0 -6 4 -11 10 -11 5 0 7 -6 4 -13 -3 -8 2 -14 10 -14 11
0 13 5 5 18 -11 22 -29 34 -29 20z"/>
<path d="M5076 4682 c-3 -5 1 -9 9 -9 8 0 12 4 9 9 -3 4 -7 8 -9 8 -2 0 -6 -4
-9 -8z"/>
<path d="M5268 4513 c7 -3 16 -2 19 1 4 3 -2 6 -13 5 -11 0 -14 -3 -6 -6z"/>
<path d="M7434 4489 c1 -7 10 -13 19 -15 9 -1 15 2 11 7 -3 5 -9 7 -14 4 -4
-3 -11 0 -13 5 -3 6 -4 5 -3 -1z"/>
<path d="M7410 4485 c0 -5 5 -17 10 -25 5 -8 10 -10 10 -5 0 6 -5 17 -10 25
-5 8 -10 11 -10 5z"/>
<path d="M5482 4326 c7 -8 17 -12 22 -9 4 3 2 9 -5 14 -22 13 -31 11 -17 -5z"/>
<path d="M5475 4308 c8 -20 45 -25 45 -7 0 6 -6 9 -14 6 -7 -3 -19 0 -25 6 -9
9 -11 8 -6 -5z"/>
<path d="M5750 3956 c0 -2 8 -10 18 -17 15 -13 16 -12 3 4 -13 16 -21 21 -21
13z"/>
<path d="M7586 3902 c-3 -5 1 -9 9 -9 8 0 12 4 9 9 -3 4 -7 8 -9 8 -2 0 -6 -4
-9 -8z"/>
<path d="M5820 3841 c0 -10 19 -25 25 -20 1 2 -3 10 -11 17 -8 7 -14 8 -14 3z"/>
<path d="M4133 3685 c0 -8 4 -12 9 -9 5 3 6 10 3 15 -9 13 -12 11 -12 -6z"/>
<path d="M4375 3689 c-4 -6 -5 -12 -2 -15 2 -3 7 2 10 11 7 17 1 20 -8 4z"/>
<path d="M4095 3680 c-3 -6 1 -7 9 -4 18 7 21 14 7 14 -6 0 -13 -4 -16 -10z"/>
<path d="M4395 3680 c-3 -5 -1 -10 4 -10 6 0 11 5 11 10 0 6 -2 10 -4 10 -3 0
-8 -4 -11 -10z"/>
<path d="M4425 3680 c-3 -6 1 -7 9 -4 18 7 21 14 7 14 -6 0 -13 -4 -16 -10z"/>
<path d="M3730 3660 c0 -5 5 -10 11 -10 5 0 7 5 4 10 -3 6 -8 10 -11 10 -2 0
-4 -4 -4 -10z"/>
<path d="M3785 3654 c8 -6 12 -14 8 -17 -3 -4 -11 -3 -17 3 -7 5 -17 5 -26 -2
-12 -8 -12 -9 2 -4 10 3 22 -2 27 -12 7 -11 11 -12 11 -4 0 7 5 10 10 7 6 -4
10 -3 9 2 -4 21 2 25 14 10 11 -16 12 -15 12 5 0 19 -5 23 -33 23 -26 0 -29
-2 -17 -11z"/>
<path d="M3250 3639 c0 -5 5 -7 10 -4 6 3 10 8 10 11 0 2 -4 4 -10 4 -5 0 -10
-5 -10 -11z"/>
<path d="M3705 3639 c-4 -6 -4 -13 -1 -16 3 -4 6 -1 6 6 0 7 5 9 12 5 7 -4 8
-3 4 4 -9 15 -13 15 -21 1z"/>
<path d="M2950 3578 c0 -4 6 -8 14 -8 8 0 17 4 20 8 2 4 -4 8 -15 8 -10 0 -19
-4 -19 -8z"/>
<path d="M5918 3583 c10 -4 10 -8 0 -21 -12 -15 -11 -16 4 -3 19 14 15 32 -5
30 -8 0 -8 -2 1 -6z"/>
<path d="M2943 3531 c0 -11 5 -18 9 -15 4 3 5 11 1 19 -7 21 -12 19 -10 -4z"/>
<path d="M5910 3496 c0 -2 7 -7 16 -10 8 -3 12 -2 9 4 -6 10 -25 14 -25 6z"/>
<path d="M5938 3398 c5 -5 16 -8 23 -6 8 3 3 7 -10 11 -17 4 -21 3 -13 -5z"/>
<path d="M5979 3388 c-6 -21 -5 -37 2 -32 5 3 7 9 4 14 -3 4 1 11 7 13 10 4
10 6 1 6 -7 1 -13 0 -14 -1z"/>
<path d="M4540 2506 c0 -2 7 -7 16 -10 8 -3 12 -2 9 4 -6 10 -25 14 -25 6z"/>
<path d="M5854 2479 c0 -20 11 -25 20 -10 3 5 0 13 -7 19 -10 8 -13 6 -13 -9z"/>
<path d="M5600 2208 c0 -4 4 -8 9 -8 6 0 12 4 15 8 3 5 -1 9 -9 9 -8 0 -15 -4
-15 -9z"/>
<path d="M4770 2200 c-9 -6 -10 -10 -3 -10 6 0 15 5 18 10 8 12 4 12 -15 0z"/>
<path d="M4746 2164 c-5 -14 -4 -15 9 -4 17 14 19 20 6 20 -5 0 -12 -7 -15
-16z"/>
<path d="M5500 2161 c0 -6 4 -13 10 -16 6 -3 7 1 4 9 -7 18 -14 21 -14 7z"/>
<path d="M5476 2147 c3 -10 9 -15 12 -12 3 3 0 11 -7 18 -10 9 -11 8 -5 -6z"/>
<path d="M4906 2142 c-3 -5 1 -9 9 -9 8 0 12 4 9 9 -3 4 -7 8 -9 8 -2 0 -6 -4
-9 -8z"/>
<path d="M5410 2140 c0 -5 5 -10 11 -10 5 0 7 5 4 10 -3 6 -8 10 -11 10 -2 0
-4 -4 -4 -10z"/>
<path d="M7410 2040 c-9 -6 -10 -10 -3 -10 6 0 15 5 18 10 8 12 4 12 -15 0z"/>
<path d="M3000 2020 c-9 -6 -10 -10 -3 -10 6 0 15 5 18 10 8 12 4 12 -15 0z"/>
<path d="M3015 1829 c-4 -6 -5 -12 -2 -15 2 -3 7 2 10 11 7 17 1 20 -8 4z"/>
<path d="M3057 1803 c3 -7 8 -13 12 -13 4 0 8 6 8 13 0 8 -6 14 -13 14 -7 0
-10 -6 -7 -14z"/>
<path d="M3053 1761 c0 -11 5 -18 9 -15 4 3 5 11 1 19 -7 21 -12 19 -10 -4z"/>
<path d="M3153 1475 c0 -8 4 -12 9 -9 5 3 6 10 3 15 -9 13 -12 11 -12 -6z"/>
<path d="M7085 1441 c-3 -5 0 -13 6 -17 8 -5 9 -3 4 6 -6 10 -4 12 9 7 10 -4
15 -3 11 3 -8 13 -22 13 -30 1z"/>
<path d="M7086 1397 c3 -10 9 -15 12 -12 3 3 0 11 -7 18 -10 9 -11 8 -5 -6z"/>
<path d="M3426 978 c3 -5 10 -6 15 -3 13 9 11 12 -6 12 -8 0 -12 -4 -9 -9z"/>
<path d="M3464 974 c1 -9 9 -19 16 -24 12 -7 11 -11 -1 -26 -8 -10 -9 -15 -2
-11 6 4 13 4 16 0 2 -5 2 -2 0 5 -1 8 3 12 9 9 7 -2 12 -13 10 -23 -2 -15 -1
-16 7 -5 11 16 8 46 -5 47 -24 2 -45 17 -34 24 8 5 7 9 -3 13 -10 4 -14 0 -13
-9z"/>
<path d="M6696 982 c-3 -5 1 -9 9 -9 8 0 12 4 9 9 -3 4 -7 8 -9 8 -2 0 -6 -4
-9 -8z"/>
<path d="M3590 865 c-7 -8 -17 -12 -23 -8 -6 3 -7 1 -3 -5 4 -6 14 -8 23 -5
12 5 14 3 8 -8 -4 -8 -4 -11 0 -6 8 6 16 47 10 47 -2 0 -8 -7 -15 -15z"/>
<path d="M6455 860 c3 -5 8 -10 11 -10 2 0 4 5 4 10 0 6 -5 10 -11 10 -5 0 -7
-4 -4 -10z"/>
<path d="M6394 829 c-3 -6 -3 -13 0 -16 3 -4 6 -1 6 7 0 10 3 10 15 0 9 -7 15
-8 15 -2 0 14 -28 23 -36 11z"/>
<path d="M3639 793 c-13 -16 -12 -17 4 -4 16 13 21 21 13 21 -2 0 -10 -8 -17
-17z"/>
<path d="M3675 751 c-3 -5 -2 -12 3 -15 5 -3 9 1 9 9 0 17 -3 19 -12 6z"/>
<path d="M5754 559 c-2 -4 -13 -6 -24 -4 -17 3 -18 1 -7 -22 6 -14 13 -21 15
-15 2 6 9 9 17 6 7 -3 16 0 20 5 3 6 12 8 18 4 8 -5 8 -2 0 9 -7 8 -11 17 -8
20 3 2 -2 5 -10 5 -9 0 -18 -4 -21 -8z m17 -22 c-13 -13 -26 -3 -16 12 3 6 11
8 17 5 6 -4 6 -10 -1 -17z"/>
<path d="M4054 538 c-4 -7 -4 -10 1 -6 4 4 15 2 24 -5 14 -11 14 -10 2 6 -16
20 -18 21 -27 5z"/>
<path d="M5236 503 c-4 -5 -11 -8 -14 -8 -27 -2 -50 -18 -45 -31 3 -7 9 -14
14 -14 4 0 5 7 2 17 -4 10 -2 14 4 10 6 -4 14 -1 17 5 3 7 3 3 0 -9 -3 -13 -1
-23 4 -23 14 0 29 22 29 43 0 19 -1 20 -11 10z m-5 -36 c-10 -9 -11 -8 -5 6 3
10 9 15 12 12 3 -3 0 -11 -7 -18z"/>
<path d="M4420 441 c0 -6 4 -13 10 -16 6 -3 7 1 4 9 -7 18 -14 21 -14 7z"/>
<path d="M4516 441 c9 -9 54 -12 54 -3 0 5 -13 8 -30 8 -16 0 -27 -2 -24 -5z"/>
<path d="M4596 434 c-11 -8 -16 -14 -10 -14 13 0 39 18 34 24 -3 2 -14 -2 -24
-10z"/>
<path d="M4470 432 c0 -4 9 -8 19 -8 11 0 17 4 15 8 -3 4 -12 8 -20 8 -8 0
-14 -4 -14 -8z"/>
<path d="M4674 429 c-4 -7 -3 -9 4 -5 5 3 13 0 15 -6 4 -9 6 -10 6 -1 1 17
-16 25 -25 12z"/>
<path d="M4706 402 c-3 -5 1 -9 9 -9 8 0 12 4 9 9 -3 4 -7 8 -9 8 -2 0 -6 -4
-9 -8z"/>
</g>
</svg>
